RobotoExtremo-wghtmin.ufo
<glyph name="exclam" format="2">
  <advance width="513"/>
  <unicode hex="0021"/>
  <outline>
    <contour>
      <point x="186.0" y="67.08" type="qcurve" smooth="yes"/>
      <point x="186.0" y="30.32"/>
      <point x="222.62" y="-22.0"/>
      <point x="256.72" y="-22.0" type="qcurve" smooth="yes"/>
      <point x="290.82" y="-22.0"/>
      <point x="327.44" y="30.32"/>
      <point x="327.44" y="67.08" type="qcurve" smooth="yes"/>
      <point x="327.44" y="103.84"/>
      <point x="290.82" y="156.16"/>
      <point x="256.72" y="156.16" type="qcurve" smooth="yes"/>
      <point x="222.62" y="156.16"/>
      <point x="186.0" y="103.84"/>
    </contour>
    <contour>
      <point x="219.12" y="389.6" type="line"/>
      <point x="294.32" y="389.6" type="line"/>
      <point x="301.92" y="1456.0" type="line"/>
      <point x="211.52" y="1456.0" type="line"/>
    </contour>
  </outline>
</glyph>
<glyph name="quotedbl" format="2">
  <advance width="600"/>
  <unicode hex="0022"/>
  <outline>
    <contour>
      <point x="108.34" y="1099.28" type="line"/>
      <point x="191.74" y="1099.28" type="line"/>
      <point x="200.07999999999998" y="1356.72" type="line"/>
      <point x="200.07999999999998" y="1456.0" type="line"/>
      <point x="100.0" y="1456.0" type="line"/>
      <point x="100.0" y="1356.72" type="line"/>
    </contour>
    <contour>
      <point x="408.42" y="1099.28" type="line"/>
      <point x="491.82" y="1099.28" type="line"/>
      <point x="500.15999999999997" y="1356.72" type="line"/>
      <point x="500.15999999999997" y="1456.0" type="line"/>
      <point x="400.08" y="1456.0" type="line"/>
      <point x="400.08" y="1356.72" type="line"/>
    </contour>
  </outline>
</glyph>
<glyph name="dollar" format="2">
  <advance width="987"/>
  <unicode hex="0024"/>
  <outline>
    <contour>
      <point x="69.84" y="411.0" type="line" smooth="yes"/>
      <point x="69.84" y="216.56"/>
      <point x="306.5" y="0.0"/>
      <point x="503.12" y="0.0" type="qcurve" smooth="yes"/>
      <point x="699.38" y="0.0"/>
      <point x="927.24" y="205.96363636363637"/>
      <point x="927.24" y="373.6" type="qcurve" smooth="yes"/>
      <point x="927.24" y="532.704693877551"/>
      <point x="759.9226713076846" y="717.3209820631401"/>
      <point x="547.24" y="782.8" type="qcurve" smooth="yes"/>
      <point x="331.18447210474915" y="849.741677698814"/>
      <point x="185.76" y="989.9321212121213"/>
      <point x="185.76" y="1096.4" type="qcurve" smooth="yes"/>
      <point x="185.76" y="1225.2954838709677"/>
      <point x="334.88" y="1371.44"/>
      <point x="492.64" y="1371.44" type="qcurve" smooth="yes"/>
      <point x="650.24" y="1371.44"/>
      <point x="810.0" y="1193.88"/>
      <point x="810.0" y="1051.0" type="qcurve" smooth="yes"/>
      <point x="810.0" y="1039.0" type="line"/>
      <point x="897.8" y="1039.0" type="line"/>
      <point x="897.8" y="1051.0" type="line" smooth="yes"/>
      <point x="897.8" y="1224.08"/>
      <point x="678.04" y="1456.0"/>
      <point x="492.64" y="1456.0" type="qcurve" smooth="yes"/>
      <point x="305.0" y="1456.0"/>
      <point x="98.64000000000001" y="1254.102222222222"/>
      <point x="98.64000000000001" y="1096.4" type="qcurve" smooth="yes"/>
      <point x="98.64000000000001" y="943.5966492146597"/>
      <point x="278.72719542394634" y="766.6821695729265"/>
      <point x="494.06" y="699.76" type="qcurve" smooth="yes"/>
      <point x="710.50195667901" y="632.8225432033681"/>
      <point x="839.96" y="487.78"/>
      <point x="839.96" y="373.6" type="qcurve" smooth="yes"/>
      <point x="839.96" y="244.9041975308642"/>
      <point x="664.92" y="84.55999999999999"/>
      <point x="503.12" y="84.55999999999999" type="qcurve" smooth="yes"/>
      <point x="339.36" y="84.55999999999999"/>
      <point x="157.48000000000002" y="248.88"/>
      <point x="157.48000000000002" y="411.0" type="qcurve" smooth="yes"/>
      <point x="157.48000000000002" y="423.0" type="line"/>
      <point x="69.84" y="423.0" type="line"/>
    </contour>
    <contour>
      <point x="461.1" y="-150.0" type="line"/>
      <point x="537.1" y="-150.0" type="line"/>
      <point x="537.1" y="90.0" type="line"/>
      <point x="534.5" y="100.0" type="line"/>
      <point x="534.5" y="728.0" type="line"/>
      <point x="461.1" y="728.0" type="line"/>
    </contour>
    <contour>
      <point x="463.7" y="728.0" type="line"/>
      <point x="537.1" y="728.0" type="line"/>
      <point x="537.1" y="1606.0" type="line"/>
      <point x="461.1" y="1606.0" type="line"/>
      <point x="461.1" y="1366.0" type="line"/>
      <point x="463.7" y="1356.0" type="line"/>
    </contour>
  </outline>
</glyph>
<glyph name="percent" format="2">
  <advance width="1537"/>
  <unicode hex="0025"/>
  <outline>
    <contour>
      <point x="70.0" y="1016.0" type="line" smooth="yes"/>
      <point x="70.0" y="856.0"/>
      <point x="195.07999999999998" y="660.0"/>
      <point x="324.48" y="660.0" type="qcurve" smooth="yes"/>
      <point x="453.88" y="660.0"/>
      <point x="578.8" y="856.0"/>
      <point x="578.8" y="1016.0" type="qcurve" smooth="yes"/>
      <point x="578.8" y="1120.0" type="line" smooth="yes"/>
      <point x="578.8" y="1280.0"/>
      <point x="453.88" y="1476.0"/>
      <point x="324.48" y="1476.0" type="qcurve" smooth="yes"/>
      <point x="195.07999999999998" y="1476.0"/>
      <point x="70.0" y="1280.0"/>
      <point x="70.0" y="1120.0" type="qcurve" smooth="yes"/>
    </contour>
    <contour>
      <point x="151.2" y="1016.0" type="qcurve" smooth="yes"/>
      <point x="151.2" y="1120.0" type="line" smooth="yes"/>
      <point x="151.2" y="1240.6"/>
      <point x="226.95999999999998" y="1395.36"/>
      <point x="324.48" y="1395.36" type="qcurve" smooth="yes"/>
      <point x="421.84" y="1395.36"/>
      <point x="497.6" y="1240.6"/>
      <point x="497.6" y="1120.0" type="qcurve" smooth="yes"/>
      <point x="497.6" y="1016.0" type="line" smooth="yes"/>
      <point x="497.6" y="895.4"/>
      <point x="421.84" y="740.64"/>
      <point x="324.48" y="740.64" type="qcurve" smooth="yes"/>
      <point x="226.95999999999998" y="740.64"/>
      <point x="151.2" y="895.4"/>
    </contour>
    <contour>
      <point x="274.58" y="37.599999999999994" type="line"/>
      <point x="341.65999999999997" y="-9.599999999999998" type="line"/>
      <point x="1261.78" y="1416.16" type="line"/>
      <point x="1195.6599999999999" y="1465.6" type="line"/>
    </contour>
    <contour>
      <point x="958.52" y="336.0" type="line" smooth="yes"/>
      <point x="958.52" y="171.68"/>
      <point x="1082.0" y="-20.0"/>
      <point x="1213.0" y="-20.0" type="qcurve" smooth="yes"/>
      <point x="1343.84" y="-20.0"/>
      <point x="1467.32" y="178.88"/>
      <point x="1467.32" y="338.72" type="qcurve" smooth="yes"/>
      <point x="1467.32" y="440.0" type="line" smooth="yes"/>
      <point x="1467.32" y="598.72"/>
      <point x="1343.84" y="796.0"/>
      <point x="1213.0" y="796.0" type="qcurve" smooth="yes"/>
      <point x="1082.0" y="796.0"/>
      <point x="958.52" y="598.88"/>
      <point x="958.52" y="440.0" type="qcurve" smooth="yes"/>
    </contour>
    <contour>
      <point x="1039.72" y="336.0" type="qcurve" smooth="yes"/>
      <point x="1039.72" y="440.0" type="line" smooth="yes"/>
      <point x="1039.72" y="560.12"/>
      <point x="1114.52" y="715.36"/>
      <point x="1213.0" y="715.36" type="qcurve" smooth="yes"/>
      <point x="1311.32" y="715.36"/>
      <point x="1386.12" y="559.0"/>
      <point x="1386.12" y="438.4" type="qcurve" smooth="yes"/>
      <point x="1386.12" y="336.0" type="line" smooth="yes"/>
      <point x="1386.12" y="216.04"/>
      <point x="1311.32" y="60.64"/>
      <point x="1213.0" y="60.64" type="qcurve" smooth="yes"/>
      <point x="1114.52" y="60.64"/>
      <point x="1039.72" y="209.96"/>
    </contour>
  </outline>
</glyph>
<glyph name="parenright" format="2">
  <advance width="596"/>
  <unicode hex="0029"/>
  <outline>
    <contour>
      <point x="14.40000000000001" y="-436.0" type="line"/>
      <point x="199.2" y="-357.44"/>
      <point x="472.4" y="120.0"/>
      <point x="472.4" y="515.0" type="qcurve" smooth="yes"/>
      <point x="472.4" y="525.0" type="line" smooth="yes"/>
      <point x="472.4" y="920.0"/>
      <point x="199.2" y="1397.44"/>
      <point x="14.40000000000001" y="1476.0" type="qcurve"/>
      <point x="14.40000000000001" y="1390.8" type="line"/>
      <point x="156.84" y="1317.3600000000001"/>
      <point x="381.0" y="907.2"/>
      <point x="381.0" y="532.0" type="qcurve" smooth="yes"/>
      <point x="381.0" y="508.0" type="line" smooth="yes"/>
      <point x="381.0" y="132.8"/>
      <point x="156.84" y="-277.36"/>
      <point x="14.40000000000001" y="-350.8" type="qcurve"/>
    </contour>
  </outline>
</glyph>
<glyph name="asterisk" format="2">
  <advance width="1061"/>
  <unicode hex="002A"/>
  <outline>
    <contour>
      <point x="58.0" y="1096.92" type="line"/>
      <point x="482.0" y="975.72" type="line"/>
      <point x="211.46" y="630.32" type="line"/>
      <point x="281.1" y="574.08" type="line"/>
      <point x="530.4399999999999" y="938.96" type="line"/>
      <point x="779.78" y="574.08" type="line"/>
      <point x="849.42" y="630.32" type="line"/>
      <point x="578.88" y="975.72" type="line"/>
      <point x="1002.88" y="1096.92" type="line"/>
      <point x="976.4399999999999" y="1187.32" type="line"/>
      <point x="560.06" y="1037.12" type="line"/>
      <point x="573.64" y="1476.0" type="line"/>
      <point x="487.24" y="1476.0" type="line"/>
      <point x="500.82" y="1037.12" type="line"/>
      <point x="84.44" y="1187.32" type="line"/>
    </contour>
  </outline>
</glyph>
<glyph name="hyphen" format="2">
  <advance width="593"/>
  <unicode hex="002D"/>
  <outline>
    <contour>
      <point x="40.0" y="592.96" type="line"/>
      <point x="552.56" y="592.96" type="line"/>
      <point x="552.56" y="682.0" type="line"/>
      <point x="40.0" y="682.0" type="line"/>
    </contour>
  </outline>
</glyph>
<glyph name="three" format="2">
  <advance width="1193"/>
  <unicode hex="0033"/>
  <outline>
    <contour>
      <point x="177.68" y="380.0" type="line" smooth="yes"/>
      <point x="177.68" y="200.0"/>
      <point x="401.64" y="-30.0"/>
      <point x="577.04" y="-30.0" type="qcurve" smooth="yes"/>
      <point x="752.6" y="-30.0"/>
      <point x="977.54" y="200.0"/>
      <point x="977.54" y="400.32" type="qcurve" smooth="yes"/>
      <point x="977.54" y="540.0"/>
      <point x="827.6" y="728.64"/>
      <point x="707.0" y="759.28" type="qcurve"/>
      <point x="707.0" y="763.28" type="line"/>
      <point x="823.2" y="814.64"/>
      <point x="924.1999999999999" y="993.2"/>
      <point x="924.1999999999999" y="1100.0" type="qcurve" smooth="yes"/>
      <point x="924.1999999999999" y="1270.0"/>
      <point x="732.54" y="1486.0"/>
      <point x="577.04" y="1486.0" type="qcurve" smooth="yes"/>
      <point x="421.7" y="1486.0"/>
      <point x="219.27999999999997" y="1266.8"/>
      <point x="219.27999999999997" y="1100.0" type="qcurve" smooth="yes"/>
      <point x="219.27999999999997" y="1090.0" type="line"/>
      <point x="307.6" y="1090.0" type="line"/>
      <point x="307.6" y="1100.0" type="line" smooth="yes"/>
      <point x="307.6" y="1244.0"/>
      <point x="461.0" y="1401.44"/>
      <point x="577.04" y="1401.44" type="qcurve" smooth="yes"/>
      <point x="693.56" y="1401.44"/>
      <point x="834.3199999999999" y="1244.0"/>
      <point x="834.3199999999999" y="1096.8" type="qcurve" smooth="yes"/>
      <point x="834.3199999999999" y="963.2"/>
      <point x="675.88" y="802.0"/>
      <point x="527.12" y="802.0" type="qcurve" smooth="yes"/>
      <point x="417.96" y="802.0" type="line"/>
      <point x="417.96" y="716.0" type="line"/>
      <point x="537.6" y="716.0" type="line" smooth="yes"/>
      <point x="689.64" y="716.0"/>
      <point x="886.4" y="553.6"/>
      <point x="886.4" y="400.0" type="qcurve" smooth="yes"/>
      <point x="886.4" y="226.0"/>
      <point x="717.84" y="54.55999999999999"/>
      <point x="577.04" y="54.55999999999999" type="qcurve" smooth="yes"/>
      <point x="436.4" y="54.55999999999999"/>
      <point x="266.0" y="226.0"/>
      <point x="266.0" y="380.0" type="qcurve" smooth="yes"/>
      <point x="266.0" y="390.0" type="line"/>
      <point x="177.68" y="390.0" type="line"/>
    </contour>
  </outline>
</glyph>
<glyph name="seven" format="2">
  <advance width="1193"/>
  <unicode hex="0037"/>
  <outline>
    <contour>
      <point x="325.28" y="0.0" type="line"/>
      <point x="422.12" y="0.0" type="line"/>
      <point x="1034.06" y="1386.0" type="line"/>
      <point x="1034.06" y="1456.0" type="line"/>
      <point x="152.0" y="1456.0" type="line"/>
      <point x="152.0" y="1369.36" type="line"/>
      <point x="939.6" y="1369.36" type="line"/>
    </contour>
  </outline>
</glyph>
<glyph name="semicolon" format="2">
  <advance width="493"/>
  <unicode hex="003B"/>
  <outline>
    <contour>
      <point x="154.04" y="-159.51999999999998" type="qcurve"/>
      <point x="218.34" y="-201.92" type="line"/>
      <point x="262.56" y="-153.28"/>
      <point x="312.68" y="-29.119999999999997"/>
      <point x="312.68" y="50.959999999999994" type="qcurve" smooth="yes"/>
      <point x="312.68" y="160.16" type="line"/>
      <point x="212.6" y="160.16" type="line"/>
      <point x="212.6" y="50.959999999999994" type="line" smooth="yes"/>
      <point x="212.6" y="-14.559999999999999"/>
      <point x="182.8" y="-113.19999999999999"/>
    </contour>
    <contour>
      <point x="176.0" y="978.92" type="qcurve" smooth="yes"/>
      <point x="176.0" y="942.16"/>
      <point x="212.62" y="889.84"/>
      <point x="246.72" y="889.84" type="qcurve" smooth="yes"/>
      <point x="280.82" y="889.84"/>
      <point x="317.44" y="942.16"/>
      <point x="317.44" y="978.92" type="qcurve" smooth="yes"/>
      <point x="317.44" y="1015.68"/>
      <point x="280.82" y="1068.0"/>
      <point x="246.72" y="1068.0" type="qcurve" smooth="yes"/>
      <point x="212.62" y="1068.0"/>
      <point x="176.0" y="1015.68"/>
    </contour>
  </outline>
</glyph>
<glyph name="equal" format="2">
  <advance width="1205"/>
  <unicode hex="003D"/>
  <outline>
    <contour>
      <point x="197.4" y="433.52" type="line"/>
      <point x="1007.16" y="433.52" type="line"/>
      <point x="1007.16" y="520.0" type="line"/>
      <point x="197.4" y="520.0" type="line"/>
    </contour>
    <contour>
      <point x="197.4" y="828.0" type="line"/>
      <point x="1007.16" y="828.0" type="line"/>
      <point x="1007.16" y="914.48" type="line"/>
      <point x="197.4" y="914.48" type="line"/>
    </contour>
  </outline>
</glyph>
<glyph name="F" format="2">
  <advance width="983"/>
  <unicode hex="0046"/>
  <outline>
    <contour>
      <point x="170.0" y="0.0" type="line"/>
      <point x="259.88" y="0.0" type="line"/>
      <point x="259.88" y="679.72" type="line"/>
      <point x="829.04" y="679.72" type="line"/>
      <point x="829.04" y="764.28" type="line"/>
      <point x="259.88" y="764.28" type="line"/>
      <point x="259.88" y="1371.44" type="line"/>
      <point x="924.64" y="1371.44" type="line"/>
      <point x="924.64" y="1456.0" type="line"/>
      <point x="170.0" y="1456.0" type="line"/>
    </contour>
  </outline>
</glyph>
<glyph name="I" format="2">
  <advance width="440"/>
  <unicode hex="0049"/>
  <outline>
    <contour>
      <point x="175.0" y="0.0" type="line"/>
      <point x="264.88" y="0.0" type="line"/>
      <point x="264.88" y="1456.0" type="line"/>
      <point x="175.0" y="1456.0" type="line"/>
    </contour>
  </outline>
</glyph>
<glyph name="K" format="2">
  <advance width="1129"/>
  <unicode hex="004B"/>
  <outline>
    <contour>
      <point x="170.0" y="0.0" type="line"/>
      <point x="259.88" y="0.0" type="line"/>
      <point x="259.88" y="551.76" type="line"/>
      <point x="1123.56" y="1456.0" type="line"/>
      <point x="1006.96" y="1456.0" type="line"/>
      <point x="259.88" y="673.36" type="line"/>
      <point x="259.88" y="1456.0" type="line"/>
      <point x="170.0" y="1456.0" type="line"/>
    </contour>
    <contour>
      <point x="1032.92" y="0.0" type="line"/>
      <point x="1148.6" y="0.0" type="line"/>
      <point x="485.0" y="848.24" type="line"/>
      <point x="424.52" y="781.76" type="line"/>
    </contour>
  </outline>
</glyph>
<glyph name="M" format="2">
  <advance width="1656"/>
  <unicode hex="004D"/>
  <outline>
    <contour>
      <point x="170.0" y="0.0" type="line"/>
      <point x="257.28" y="0.0" type="line"/>
      <point x="257.28" y="1171.8" type="line" smooth="yes"/>
      <point x="257.28" y="1201.8"/>
      <point x="251.12" y="1276.8"/>
      <point x="247.12" y="1306.8" type="qcurve"/>
      <point x="258.8" y="1306.8" type="line"/>
      <point x="265.12" y="1276.8"/>
      <point x="290.08" y="1201.8"/>
      <point x="302.56" y="1171.8" type="qcurve" smooth="yes"/>
      <point x="786.88" y="0.0" type="line"/>
      <point x="867.6" y="0.0" type="line"/>
      <point x="1351.92" y="1171.8" type="line" smooth="yes"/>
      <point x="1364.3999999999999" y="1201.8"/>
      <point x="1389.36" y="1276.8"/>
      <point x="1395.68" y="1306.8" type="qcurve"/>
      <point x="1407.36" y="1306.8" type="line"/>
      <point x="1403.36" y="1276.8"/>
      <point x="1397.2" y="1201.8"/>
      <point x="1397.2" y="1171.8" type="qcurve" smooth="yes"/>
      <point x="1397.2" y="0.0" type="line"/>
      <point x="1485.52" y="0.0" type="line"/>
      <point x="1485.52" y="1456.0" type="line"/>
      <point x="1377.8" y="1456.0" type="line"/>
      <point x="876.16" y="241.60000000000002" type="line" smooth="yes"/>
      <point x="863.68" y="211.60000000000002"/>
      <point x="841.72" y="146.60000000000002"/>
      <point x="833.4" y="116.60000000000001" type="qcurve"/>
      <point x="825.0799999999999" y="116.60000000000001" type="line"/>
      <point x="816.76" y="146.60000000000002"/>
      <point x="795.12" y="211.60000000000002"/>
      <point x="782.48" y="241.60000000000002" type="qcurve" smooth="yes"/>
      <point x="280.68" y="1456.0" type="line"/>
      <point x="170.0" y="1456.0" type="line"/>
    </contour>
  </outline>
</glyph>
<glyph name="N" format="2">
  <advance width="1306"/>
  <unicode hex="004E"/>
  <outline>
    <contour>
      <point x="170.0" y="0.0" type="line"/>
      <point x="258.84000000000003" y="0.0" type="line"/>
      <point x="258.84000000000003" y="1155.8" type="line" smooth="yes"/>
      <point x="258.84000000000003" y="1185.8"/>
      <point x="254.84" y="1260.8"/>
      <point x="250.84" y="1290.8" type="qcurve"/>
      <point x="260.84000000000003" y="1290.8" type="line"/>
      <point x="274.84000000000003" y="1265.8"/>
      <point x="310.28" y="1205.8"/>
      <point x="331.08" y="1175.8" type="qcurve" smooth="yes"/>
      <point x="1035.6399999999999" y="0.0" type="line"/>
      <point x="1136.48" y="0.0" type="line"/>
      <point x="1136.48" y="1456.0" type="line"/>
      <point x="1047.6399999999999" y="1456.0" type="line"/>
      <point x="1047.6399999999999" y="300.2" type="line" smooth="yes"/>
      <point x="1047.6399999999999" y="270.2"/>
      <point x="1051.6399999999999" y="195.2"/>
      <point x="1055.6399999999999" y="165.2" type="qcurve"/>
      <point x="1045.6399999999999" y="165.2" type="line"/>
      <point x="1031.6399999999999" y="190.2"/>
      <point x="996.1999999999999" y="250.2"/>
      <point x="975.4" y="280.2" type="qcurve" smooth="yes"/>
      <point x="270.84000000000003" y="1456.0" type="line"/>
      <point x="170.0" y="1456.0" type="line"/>
    </contour>
  </outline>
</glyph>
<glyph name="O" format="2">
  <advance width="1304"/>
  <unicode hex="004F"/>
  <outline>
    <contour>
      <point x="115.0" y="686.8" type="line" smooth="yes"/>
      <point x="115.0" y="348.5348314606742"/>
      <point x="415.3" y="-30.0"/>
      <point x="651.78" y="-30.0" type="qcurve" smooth="yes"/>
      <point x="888.1" y="-30.0"/>
      <point x="1188.56" y="348.5348314606742"/>
      <point x="1188.56" y="686.8" type="qcurve" smooth="yes"/>
      <point x="1188.56" y="769.2" type="line" smooth="yes"/>
      <point x="1188.56" y="1107.44"/>
      <point x="888.1" y="1486.0"/>
      <point x="651.78" y="1486.0" type="qcurve" smooth="yes"/>
      <point x="415.3" y="1486.0"/>
      <point x="115.0" y="1107.44"/>
      <point x="115.0" y="769.2" type="qcurve" smooth="yes"/>
    </contour>
    <contour>
      <point x="206.14" y="686.8" type="qcurve" smooth="yes"/>
      <point x="206.14" y="769.2" type="line" smooth="yes"/>
      <point x="206.14" y="1068.24"/>
      <point x="452.0326235741445" y="1399.52"/>
      <point x="651.78" y="1399.52" type="qcurve" smooth="yes"/>
      <point x="851.3524714828898" y="1399.52"/>
      <point x="1097.42" y="1068.24"/>
      <point x="1097.42" y="769.2" type="qcurve" smooth="yes"/>
      <point x="1097.42" y="686.8" type="line" smooth="yes"/>
      <point x="1097.42" y="387.75766423357663"/>
      <point x="851.3524714828898" y="56.47999999999999"/>
      <point x="651.78" y="56.47999999999999" type="qcurve" smooth="yes"/>
      <point x="452.0326235741445" y="56.47999999999999"/>
      <point x="206.14" y="387.75766423357663"/>
    </contour>
  </outline>
</glyph>
<glyph name="Q" format="2">
  <advance width="1304"/>
  <unicode hex="0051"/>
  <outline>
    <contour>
      <point x="115.0" y="686.8" type="line" smooth="yes"/>
      <point x="115.0" y="348.56"/>
      <point x="415.3" y="-30.0"/>
      <point x="651.78" y="-30.0" type="qcurve" smooth="yes"/>
      <point x="888.1" y="-30.0"/>
      <point x="1188.56" y="348.56"/>
      <point x="1188.56" y="686.8" type="qcurve" smooth="yes"/>
      <point x="1188.56" y="769.2" type="line" smooth="yes"/>
      <point x="1188.56" y="1107.44"/>
      <point x="888.1" y="1486.0"/>
      <point x="651.78" y="1486.0" type="qcurve" smooth="yes"/>
      <point x="415.3" y="1486.0"/>
      <point x="115.0" y="1107.44"/>
      <point x="115.0" y="769.2" type="qcurve" smooth="yes"/>
    </contour>
    <contour>
      <point x="206.14" y="686.8" type="qcurve" smooth="yes"/>
      <point x="206.14" y="769.2" type="line" smooth="yes"/>
      <point x="206.14" y="1068.24"/>
      <point x="452.06" y="1399.52"/>
      <point x="651.78" y="1399.52" type="qcurve" smooth="yes"/>
      <point x="851.3399999999999" y="1399.52"/>
      <point x="1097.42" y="1068.24"/>
      <point x="1097.42" y="769.2" type="qcurve" smooth="yes"/>
      <point x="1097.42" y="686.8" type="line" smooth="yes"/>
      <point x="1097.42" y="387.76"/>
      <point x="851.3399999999999" y="56.47999999999999"/>
      <point x="651.78" y="56.47999999999999" type="qcurve" smooth="yes"/>
      <point x="452.06" y="56.47999999999999"/>
      <point x="206.14" y="387.76"/>
    </contour>
    <contour>
      <point x="1170.8" y="-222.8" type="line"/>
      <point x="1233.48" y="-156.72" type="line"/>
      <point x="727.34" y="278.08000000000004" type="line"/>
      <point x="666.28" y="213.60000000000002" type="line"/>
    </contour>
  </outline>
</glyph>
<glyph name="S" format="2">
  <advance width="1059"/>
  <unicode hex="0053"/>
  <outline>
    <contour>
      <point x="90.0" y="391.2" type="line" smooth="yes"/>
      <point x="90.0" y="196.6"/>
      <point x="335.44" y="-30.0"/>
      <point x="539.16" y="-30.0" type="qcurve" smooth="yes"/>
      <point x="742.14" y="-30.0"/>
      <point x="979.3199999999999" y="192.52"/>
      <point x="979.3199999999999" y="366.4" type="qcurve" smooth="yes"/>
      <point x="979.3199999999999" y="528.72"/>
      <point x="800.74" y="717.6"/>
      <point x="582.0" y="784.56" type="qcurve" smooth="yes"/>
      <point x="363.26" y="851.52"/>
      <point x="209.16" y="995.24"/>
      <point x="209.16" y="1103.6" type="qcurve" smooth="yes"/>
      <point x="209.16" y="1234.0"/>
      <point x="364.74976" y="1399.52"/>
      <point x="528.68" y="1399.52" type="qcurve" smooth="yes"/>
      <point x="692.740206185567" y="1399.52"/>
      <point x="858.8399999999999" y="1211.28"/>
      <point x="858.8399999999999" y="1070.8" type="qcurve" smooth="yes"/>
      <point x="858.8399999999999" y="1058.8" type="line"/>
      <point x="948.72" y="1058.8" type="line"/>
      <point x="948.72" y="1070.8" type="line" smooth="yes"/>
      <point x="948.72" y="1244.08"/>
      <point x="721.3399999999999" y="1486.0"/>
      <point x="528.68" y="1486.0" type="qcurve" smooth="yes"/>
      <point x="336.92" y="1486.0"/>
      <point x="119.8" y="1266.8"/>
      <point x="119.8" y="1103.6" type="qcurve" smooth="yes"/>
      <point x="119.8" y="949.24"/>
      <point x="307.26" y="766.24"/>
      <point x="527.36" y="698.64" type="qcurve" smooth="yes"/>
      <point x="747.46" y="631.04"/>
      <point x="889.9599999999999" y="482.04"/>
      <point x="889.9599999999999" y="366.4" type="qcurve" smooth="yes"/>
      <point x="889.9599999999999" y="234.64"/>
      <point x="709.2881553398058" y="56.47999999999999"/>
      <point x="539.16" y="56.47999999999999" type="qcurve" smooth="yes"/>
      <point x="369.1287943262411" y="56.47999999999999"/>
      <point x="179.88" y="231.32"/>
      <point x="179.88" y="391.2" type="qcurve" smooth="yes"/>
      <point x="179.88" y="403.2" type="line"/>
      <point x="90.0" y="403.2" type="line"/>
    </contour>
  </outline>
</glyph>
<glyph name="U" format="2">
  <advance width="1202"/>
  <unicode hex="0055"/>
  <outline>
    <contour>
      <point x="155.0" y="478.0" type="line" smooth="yes"/>
      <point x="155.0" y="224.0"/>
      <point x="412.15999999999997" y="-30.0"/>
      <point x="601.0" y="-30.0" type="qcurve" smooth="yes"/>
      <point x="789.84" y="-30.0"/>
      <point x="1047.0" y="224.0"/>
      <point x="1047.0" y="478.0" type="qcurve" smooth="yes"/>
      <point x="1047.0" y="1456.0" type="line"/>
      <point x="957.12" y="1456.0" type="line"/>
      <point x="957.12" y="478.0" type="line" smooth="yes"/>
      <point x="957.12" y="264.51238095238097"/>
      <point x="755.9075894988066" y="56.47999999999999"/>
      <point x="601.0" y="56.47999999999999" type="qcurve" smooth="yes"/>
      <point x="445.91408114558476" y="56.47999999999999"/>
      <point x="244.88" y="264.51238095238097"/>
      <point x="244.88" y="478.0" type="qcurve" smooth="yes"/>
      <point x="244.88" y="1456.0" type="line"/>
      <point x="155.0" y="1456.0" type="line"/>
    </contour>
  </outline>
</glyph>
<glyph name="W" format="2">
  <advance width="1719"/>
  <unicode hex="0057"/>
  <outline>
    <contour>
      <point x="418.32" y="-10.0" type="line"/>
      <point x="502.15999999999997" y="-10.0" type="line"/>
      <point x="835.36" y="1210.16" type="line" smooth="yes"/>
      <point x="844.68" y="1244.16"/>
      <point x="854.16" y="1305.16"/>
      <point x="857.16" y="1338.16" type="qcurve"/>
      <point x="862.0" y="1338.16" type="line"/>
      <point x="865.16" y="1305.16"/>
      <point x="874.48" y="1244.16"/>
      <point x="883.8" y="1210.16" type="qcurve" smooth="yes"/>
      <point x="1217.16" y="-10.0" type="line"/>
      <point x="1301.0" y="-10.0" type="line"/>
      <point x="1669.1599999999999" y="1456.0" type="line"/>
      <point x="1579.48" y="1456.0" type="line"/>
      <point x="1282.3" y="242.39999999999998" type="line" smooth="yes"/>
      <point x="1273.98" y="208.39999999999998"/>
      <point x="1266.82" y="147.39999999999998"/>
      <point x="1263.6599999999999" y="114.39999999999998" type="qcurve"/>
      <point x="1257.34" y="114.39999999999998" type="line"/>
      <point x="1254.34" y="147.39999999999998"/>
      <point x="1248.02" y="208.39999999999998"/>
      <point x="1238.7" y="242.39999999999998" type="qcurve" smooth="yes"/>
      <point x="909.44" y="1456.0" type="line"/>
      <point x="813.36" y="1456.0" type="line"/>
      <point x="487.02" y="242.39999999999998" type="line" smooth="yes"/>
      <point x="477.7" y="208.39999999999998"/>
      <point x="471.53999999999996" y="147.39999999999998"/>
      <point x="468.38" y="114.39999999999998" type="qcurve"/>
      <point x="462.06" y="114.39999999999998" type="line"/>
      <point x="459.06" y="147.39999999999998"/>
      <point x="451.9" y="208.39999999999998"/>
      <point x="443.41999999999996" y="242.39999999999998" type="qcurve" smooth="yes"/>
      <point x="143.32" y="1456.0" type="line"/>
      <point x="50.0" y="1456.0" type="line"/>
    </contour>
  </outline>
</glyph>
<glyph name="Y" format="2">
  <advance width="1106"/>
  <unicode hex="0059"/>
  <outline>
    <contour>
      <point x="507.96" y="0.0" type="line"/>
      <point x="597.84" y="0.0" type="line"/>
      <point x="597.84" y="582.08" type="line"/>
      <point x="1090.8" y="1456.0" type="line"/>
      <point x="990.6" y="1456.0" type="line"/>
      <point x="614.36" y="787.4" type="line" smooth="yes"/>
      <point x="597.56" y="757.4"/>
      <point x="568.96" y="697.4"/>
      <point x="557.16" y="667.4" type="qcurve"/>
      <point x="551.3199999999999" y="667.4" type="line"/>
      <point x="539.52" y="697.4"/>
      <point x="510.91999999999996" y="757.4"/>
      <point x="494.12" y="787.4" type="qcurve" smooth="yes"/>
      <point x="120.56" y="1456.0" type="line"/>
      <point x="15.0" y="1456.0" type="line"/>
      <point x="507.96" y="582.08" type="line"/>
    </contour>
  </outline>
</glyph>
<glyph name="underscore" format="2">
  <advance width="961"/>
  <unicode hex="005F"/>
  <outline>
    <contour>
      <point x="0.0" y="-187.12" type="line"/>
      <point x="320.32" y="-187.12" type="line"/>
      <point x="320.32" y="-100.0" type="line"/>
      <point x="0.0" y="-100.0" type="line"/>
    </contour>
    <contour>
      <point x="320.32" y="-187.12" type="line"/>
      <point x="640.64" y="-187.12" type="line"/>
      <point x="640.64" y="-100.0" type="line"/>
      <point x="320.32" y="-100.0" type="line"/>
    </contour>
    <contour>
      <point x="640.64" y="-187.12" type="line"/>
      <point x="960.96" y="-187.12" type="line"/>
      <point x="960.96" y="-100.0" type="line"/>
      <point x="640.64" y="-100.0" type="line"/>
    </contour>
  </outline>
</glyph>
<glyph name="grave" format="2">
  <advance width="1036"/>
  <unicode hex="0060"/>
  <outline>
    <contour>
      <point x="495.96" y="1156.0" type="line"/>
      <point x="584.72" y="1156.0" type="line"/>
      <point x="349.52" y="1456.0" type="line"/>
      <point x="239.4" y="1456.0" type="line"/>
    </contour>
  </outline>
</glyph>
<glyph name="g" format="2">
  <advance width="1026"/>
  <unicode hex="0067"/>
  <outline>
    <contour>
      <point x="123.28" y="-318.0" type="line"/>
      <point x="187.32" y="-370.4"/>
      <point x="368.32" y="-436.0"/>
      <point x="476.08" y="-436.0" type="qcurve" smooth="yes"/>
      <point x="654.5799999999999" y="-436.0"/>
      <point x="877.5999999999999" y="-200.0"/>
      <point x="877.5999999999999" y="20.0" type="qcurve" smooth="yes"/>
      <point x="877.5999999999999" y="1052.0" type="line"/>
      <point x="798.24" y="1052.0" type="line"/>
      <point x="795.68" y="910.2" type="line"/>
      <point x="793.4399999999999" y="910.2" type="line"/>
      <point x="750.18" y="975.76"/>
      <point x="580.8199999999999" y="1072.0"/>
      <point x="471.84" y="1072.0" type="qcurve" smooth="yes"/>
      <point x="289.92" y="1072.0"/>
      <point x="85.0" y="772.0"/>
      <point x="85.0" y="542.0" type="qcurve" smooth="yes"/>
      <point x="85.0" y="510.0" type="line" smooth="yes"/>
      <point x="85.0" y="280.0"/>
      <point x="289.92" y="-20.0"/>
      <point x="471.84" y="-20.0" type="qcurve" smooth="yes"/>
      <point x="580.98" y="-20.0"/>
      <point x="739.38" y="63.08"/>
      <point x="789.28" y="128.8" type="qcurve"/>
      <point x="789.28" y="20.0" type="line" smooth="yes"/>
      <point x="789.28" y="-156.04"/>
      <point x="618.5664810126582" y="-350.16"/>
      <point x="470.91999999999996" y="-350.16" type="qcurve" smooth="yes"/>
      <point x="380.46" y="-350.16"/>
      <point x="221.01999999999998" y="-287.6"/>
      <point x="177.2" y="-242.60000000000002" type="qcurve"/>
    </contour>
    <contour>
      <point x="174.36" y="510.0" type="qcurve" smooth="yes"/>
      <point x="174.36" y="542.0" type="line" smooth="yes"/>
      <point x="174.36" y="731.24"/>
      <point x="327.64" y="989.36"/>
      <point x="491.88" y="989.36" type="qcurve" smooth="yes"/>
      <point x="601.64" y="989.36"/>
      <point x="755.24" y="875.96"/>
      <point x="789.28" y="803.2" type="qcurve"/>
      <point x="789.28" y="248.8" type="line"/>
      <point x="755.4" y="176.04"/>
      <point x="601.64" y="62.64"/>
      <point x="491.88" y="62.64" type="qcurve" smooth="yes"/>
      <point x="327.64" y="62.64"/>
      <point x="174.36" y="320.76"/>
    </contour>
  </outline>
</glyph>
<glyph name="h" format="2">
  <advance width="992"/>
  <unicode hex="0068"/>
  <outline>
    <contour>
      <point x="148.0" y="0.0" type="line"/>
      <point x="236.32" y="0.0" type="line"/>
      <point x="236.32" y="802.4" type="line"/>
      <point x="280.02" y="883.76"/>
      <point x="427.44" y="988.08"/>
      <point x="525.24" y="988.08" type="qcurve" smooth="yes"/>
      <point x="640.28" y="988.08"/>
      <point x="765.4399999999999" y="869.6800000000001"/>
      <point x="765.4399999999999" y="733.0" type="qcurve" smooth="yes"/>
      <point x="765.4399999999999" y="0.0" type="line"/>
      <point x="853.76" y="0.0" type="line"/>
      <point x="853.76" y="731.0" type="line" smooth="yes"/>
      <point x="853.76" y="914.92"/>
      <point x="689.4" y="1072.0"/>
      <point x="549.98" y="1072.0" type="qcurve" smooth="yes"/>
      <point x="448.26" y="1072.0"/>
      <point x="289.58" y="984.76"/>
      <point x="236.32" y="911.6" type="qcurve"/>
      <point x="236.32" y="1536.0" type="line"/>
      <point x="148.0" y="1536.0" type="line"/>
    </contour>
  </outline>
</glyph>
<glyph name="i" format="2">
  <advance width="402"/>
  <unicode hex="0069"/>
  <outline>
    <contour>
      <point x="157.0" y="0.0" type="line"/>
      <point x="245.32" y="0.0" type="line"/>
      <point x="245.32" y="1052.0" type="line"/>
      <point x="157.0" y="1052.0" type="line"/>
    </contour>
    <contour>
      <point x="140.0" y="1398.56" type="qcurve" smooth="yes"/>
      <point x="140.0" y="1365.8"/>
      <point x="171.84" y="1321.12"/>
      <point x="201.16" y="1321.12" type="qcurve" smooth="yes"/>
      <point x="230.48000000000002" y="1321.12"/>
      <point x="262.32" y="1365.8"/>
      <point x="262.32" y="1398.56" type="qcurve" smooth="yes"/>
      <point x="262.32" y="1431.32"/>
      <point x="230.48000000000002" y="1476.0"/>
      <point x="201.16" y="1476.0" type="qcurve" smooth="yes"/>
      <point x="171.84" y="1476.0"/>
      <point x="140.0" y="1431.32"/>
    </contour>
  </outline>
</glyph>
<glyph name="j" format="2">
  <advance width="402"/>
  <unicode hex="006A"/>
  <outline>
    <contour>
      <point x="-113.67999999999999" y="-414.08" type="line"/>
      <point x="-94.1124971812024" y="-421.0884583301469"/>
      <point x="-21.352835820895507" y="-436.0"/>
      <point x="10.56000000000001" y="-436.0" type="qcurve" smooth="yes"/>
      <point x="125.82526315789474" y="-436.0"/>
      <point x="245.32" y="-270.0"/>
      <point x="245.32" y="-90.0" type="qcurve" smooth="yes"/>
      <point x="245.32" y="1052.0" type="line"/>
      <point x="157.0" y="1052.0" type="line"/>
      <point x="157.0" y="-130.0" type="line" smooth="yes"/>
      <point x="157.0" y="-248.4426666666667"/>
      <point x="71.6" y="-352.08"/>
      <point x="-4.679999999999993" y="-352.08" type="qcurve" smooth="yes"/>
      <point x="-31.25999999999999" y="-352.08"/>
      <point x="-95.52" y="-338.76"/>
      <point x="-113.67999999999999" y="-333.44" type="qcurve"/>
    </contour>
    <contour>
      <point x="140.0" y="1398.56" type="qcurve" smooth="yes"/>
      <point x="140.0" y="1365.8"/>
      <point x="171.84" y="1321.12"/>
      <point x="201.16" y="1321.12" type="qcurve" smooth="yes"/>
      <point x="230.48000000000002" y="1321.12"/>
      <point x="262.32" y="1365.8"/>
      <point x="262.32" y="1398.56" type="qcurve" smooth="yes"/>
      <point x="262.32" y="1431.32"/>
      <point x="230.48000000000002" y="1476.0"/>
      <point x="201.16" y="1476.0" type="qcurve" smooth="yes"/>
      <point x="171.84" y="1476.0"/>
      <point x="140.0" y="1431.32"/>
    </contour>
  </outline>
</glyph>
<glyph name="m" format="2">
  <advance width="1569"/>
  <unicode hex="006D"/>
  <outline>
    <contour>
      <point x="148.0" y="0.0" type="line"/>
      <point x="236.32" y="0.0" type="line"/>
      <point x="236.32" y="802.4" type="line"/>
      <point x="279.86" y="882.92"/>
      <point x="420.44" y="988.08"/>
      <point x="515.24" y="988.08" type="qcurve" smooth="yes"/>
      <point x="625.28" y="988.08"/>
      <point x="744.96" y="869.6800000000001"/>
      <point x="745.4399999999999" y="733.0" type="qcurve" smooth="yes"/>
      <point x="745.4399999999999" y="0.0" type="line"/>
      <point x="833.76" y="0.0" type="line"/>
      <point x="833.76" y="802.4" type="line"/>
      <point x="877.3" y="882.92"/>
      <point x="1017.88" y="988.08"/>
      <point x="1112.68" y="988.08" type="qcurve" smooth="yes"/>
      <point x="1222.72" y="988.08"/>
      <point x="1342.3999999999999" y="869.6800000000001"/>
      <point x="1342.8799999999999" y="733.0" type="qcurve" smooth="yes"/>
      <point x="1342.8799999999999" y="0.0" type="line"/>
      <point x="1431.1999999999998" y="0.0" type="line"/>
      <point x="1431.1999999999998" y="731.0" type="line" smooth="yes"/>
      <point x="1431.1999999999998" y="914.92"/>
      <point x="1270.1020689655172" y="1072.0"/>
      <point x="1133.22" y="1072.0" type="qcurve" smooth="yes"/>
      <point x="1032.5555555555554" y="1072.0"/>
      <point x="872.441775493821" y="983.2638013017358"/>
      <point x="813.52" y="894.72" type="qcurve"/>
      <point x="811.12" y="894.72" type="line"/>
      <point x="781.4599999999999" y="983.08"/>
      <point x="640.22" y="1072.0"/>
      <point x="539.98" y="1072.0" type="qcurve" smooth="yes"/>
      <point x="441.26" y="1072.0"/>
      <point x="286.0" y="982.92"/>
      <point x="232.16000000000003" y="907.4" type="qcurve"/>
      <point x="229.92000000000002" y="907.4" type="line"/>
      <point x="227.36" y="1052.0" type="line"/>
      <point x="148.0" y="1052.0" type="line"/>
    </contour>
  </outline>
</glyph>
<glyph name="p" format="2">
  <advance width="1026"/>
  <unicode hex="0070"/>
  <outline>
    <contour>
      <point x="148.0" y="-416.0" type="line"/>
      <point x="236.32" y="-416.0" type="line"/>
      <point x="236.32" y="128.8" type="line"/>
      <point x="286.22" y="63.08"/>
      <point x="444.62" y="-20.0"/>
      <point x="553.76" y="-20.0" type="qcurve" smooth="yes"/>
      <point x="735.68" y="-20.0"/>
      <point x="940.5999999999999" y="280.0"/>
      <point x="940.5999999999999" y="510.0" type="qcurve" smooth="yes"/>
      <point x="940.5999999999999" y="542.0" type="line" smooth="yes"/>
      <point x="940.5999999999999" y="772.0"/>
      <point x="735.68" y="1072.0"/>
      <point x="553.76" y="1072.0" type="qcurve" smooth="yes"/>
      <point x="444.78" y="1072.0"/>
      <point x="275.42" y="975.76"/>
      <point x="232.16000000000003" y="910.2" type="qcurve"/>
      <point x="229.92000000000002" y="910.2" type="line"/>
      <point x="227.36" y="1052.0" type="line"/>
      <point x="148.0" y="1052.0" type="line"/>
    </contour>
    <contour>
      <point x="236.32" y="248.8" type="qcurve"/>
      <point x="236.32" y="803.2" type="line"/>
      <point x="270.36" y="875.96"/>
      <point x="423.96000000000004" y="989.36"/>
      <point x="533.72" y="989.36" type="qcurve" smooth="yes"/>
      <point x="697.96" y="989.36"/>
      <point x="851.24" y="731.24"/>
      <point x="851.24" y="542.0" type="qcurve" smooth="yes"/>
      <point x="851.24" y="510.0" type="line" smooth="yes"/>
      <point x="851.24" y="320.76"/>
      <point x="697.96" y="62.64"/>
      <point x="533.72" y="62.64" type="qcurve" smooth="yes"/>
      <point x="423.96000000000004" y="62.64"/>
      <point x="270.2" y="176.04"/>
    </contour>
  </outline>
</glyph>
<glyph name="q" format="2">
  <advance width="1026"/>
  <unicode hex="0071"/>
  <outline>
    <contour>
      <point x="85" y="510" type="line" smooth="yes"/>
      <point x="85" y="280"/>
      <point x="290" y="-20"/>
      <point x="472" y="-20" type="qcurve" smooth="yes"/>
      <point x="581" y="-20"/>
      <point x="739" y="63"/>
      <point x="789" y="129" type="qcurve"/>
      <point x="789" y="129" type="line"/>
      <point x="789" y="-416" type="line"/>
      <point x="878" y="-416" type="line"/>
      <point x="878" y="1052" type="line"/>
      <point x="798" y="1052" type="line"/>
      <point x="796" y="910" type="line"/>
      <point x="793" y="910" type="line"/>
      <point x="750" y="976"/>
      <point x="581" y="1072"/>
      <point x="472" y="1072" type="qcurve" smooth="yes"/>
      <point x="290" y="1072"/>
      <point x="85" y="772"/>
      <point x="85" y="542" type="qcurve" smooth="yes"/>
    </contour>
    <contour>
      <point x="174.36" y="510.0" type="qcurve" smooth="yes"/>
      <point x="174.36" y="542.0" type="line" smooth="yes"/>
      <point x="174.36" y="731.24"/>
      <point x="327.64" y="989.36"/>
      <point x="491.88" y="989.36" type="qcurve" smooth="yes"/>
      <point x="601.64" y="989.36"/>
      <point x="755.24" y="875.96"/>
      <point x="789.28" y="803.2" type="qcurve"/>
      <point x="789.28" y="248.8" type="line"/>
      <point x="755.4" y="176.04"/>
      <point x="601.64" y="62.64"/>
      <point x="491.88" y="62.64" type="qcurve" smooth="yes"/>
      <point x="327.64" y="62.64"/>
      <point x="174.36" y="320.76"/>
    </contour>
  </outline>
</glyph>
<glyph name="r" format="2">
  <advance width="632"/>
  <unicode hex="0072"/>
  <outline>
    <contour>
      <point x="148.0" y="0.0" type="line"/>
      <point x="236.32" y="0.0" type="line"/>
      <point x="236.32" y="801.6" type="line"/>
      <point x="272.61456679481125" y="881.1990219259542"/>
      <point x="415.464" y="991.04"/>
      <point x="507.28" y="991.04" type="qcurve" smooth="yes"/>
      <point x="534.72" y="991.04"/>
      <point x="581.28" y="984.32"/>
      <point x="602.4" y="980.32" type="qcurve"/>
      <point x="602.4" y="1068.0" type="line"/>
      <point x="591.76" y="1072.0"/>
      <point x="541.04" y="1082.0"/>
      <point x="517.76" y="1082.0" type="qcurve" smooth="yes"/>
      <point x="418.93507082152973" y="1082.0"/>
      <point x="276.3894498383317" y="979.0519127331302"/>
      <point x="232.16000000000003" y="910.6" type="qcurve"/>
      <point x="229.92000000000002" y="910.6" type="line"/>
      <point x="227.36" y="1052.0" type="line"/>
      <point x="148.0" y="1052.0" type="line"/>
    </contour>
  </outline>
</glyph>
<glyph name="v" format="2">
  <advance width="892"/>
  <unicode hex="0076"/>
  <outline>
    <contour>
      <point x="0.0" y="1052.0" type="line"/>
      <point x="407.74" y="0.0" type="line"/>
      <point x="484.74" y="0.0" type="line"/>
      <point x="892.48" y="1052.0" type="line"/>
      <point x="802.0799999999999" y="1052.0" type="line"/>
      <point x="502.88" y="261.6" type="line" smooth="yes"/>
      <point x="487.82" y="221.6"/>
      <point x="460.28" y="141.6"/>
      <point x="451.24" y="101.6" type="qcurve"/>
      <point x="445.56" y="101.6" type="line"/>
      <point x="436.52" y="141.6"/>
      <point x="409.14" y="221.6"/>
      <point x="393.91999999999996" y="261.6" type="qcurve" smooth="yes"/>
      <point x="94.4" y="1052.0" type="line"/>
    </contour>
  </outline>
</glyph>
<glyph name="w" format="2">
  <advance width="1443"/>
  <unicode hex="0077"/>
  <outline>
    <contour>
      <point x="25.0" y="1052.0" type="line"/>
      <point x="328.92" y="0.0" type="line"/>
      <point x="415.34" y="0.0" type="line"/>
      <point x="677.52" y="785.2" type="line" smooth="yes"/>
      <point x="690.74" y="825.2"/>
      <point x="711.96" y="905.2"/>
      <point x="719.8" y="945.2" type="qcurve"/>
      <point x="725.8" y="945.2" type="line"/>
      <point x="733.64" y="905.2"/>
      <point x="754.86" y="825.2"/>
      <point x="768.0799999999999" y="785.2" type="qcurve" smooth="yes"/>
      <point x="1027.3" y="0.0" type="line"/>
      <point x="1113.8799999999999" y="0.0" type="line"/>
      <point x="1417.6399999999999" y="1052.0" type="line"/>
      <point x="1330.08" y="1052.0" type="line"/>
      <point x="1110.5" y="261.6" type="line" smooth="yes"/>
      <point x="1099.44" y="221.6"/>
      <point x="1082.5" y="141.6"/>
      <point x="1075.1599999999999" y="101.6" type="qcurve"/>
      <point x="1069.1599999999999" y="101.6" type="line"/>
      <point x="1061.6599999999999" y="141.6"/>
      <point x="1038.84" y="221.6"/>
      <point x="1025.78" y="261.6" type="qcurve" smooth="yes"/>
      <point x="768.0799999999999" y="1052.0" type="line"/>
      <point x="679.28" y="1052.0" type="line"/>
      <point x="423.79999999999995" y="261.6" type="line" smooth="yes"/>
      <point x="410.74" y="221.6"/>
      <point x="388.65999999999997" y="141.6"/>
      <point x="381.15999999999997" y="101.6" type="qcurve"/>
      <point x="375.15999999999997" y="101.6" type="line"/>
      <point x="367.82" y="141.6"/>
      <point x="350.14" y="221.6"/>
      <point x="339.08" y="261.6" type="qcurve" smooth="yes"/>
      <point x="117.28" y="1052.0" type="line"/>
    </contour>
  </outline>
</glyph>
<glyph name="z" format="2">
  <advance width="938"/>
  <unicode hex="007A"/>
  <outline>
    <contour>
      <point x="70.0" y="0.0" type="line"/>
      <point x="873.84" y="0.0" type="line"/>
      <point x="873.84" y="82.64" type="line"/>
      <point x="175.88" y="82.64" type="line"/>
      <point x="842.0799999999999" y="965.92" type="line"/>
      <point x="842.0799999999999" y="1052.0" type="line"/>
      <point x="78.48" y="1052.0" type="line"/>
      <point x="78.48" y="969.36" type="line"/>
      <point x="735.36" y="969.36" type="line"/>
      <point x="70.0" y="87.03999999999999" type="line"/>
    </contour>
  </outline>
</glyph>
<glyph name="asciitilde" format="2">
  <advance width="1213"/>
  <unicode hex="007E"/>
  <outline>
    <contour>
      <point x="138.8" y="436.0" type="qcurve"/>
      <point x="226.88" y="436.0" type="line"/>
      <point x="226.88" y="549.6494845360825"/>
      <point x="289.28" y="711.6"/>
      <point x="366.15999999999997" y="711.6" type="qcurve" smooth="yes"/>
      <point x="453.52" y="711.6"/>
      <point x="726.56" y="424.0"/>
      <point x="846.72" y="424.0" type="qcurve" smooth="yes"/>
      <point x="961.6999999999999" y="424.0"/>
      <point x="1074.08" y="640.0"/>
      <point x="1074.08" y="788.0" type="qcurve"/>
      <point x="986.0" y="788.0" type="line"/>
      <point x="986.0" y="674.3505154639175"/>
      <point x="923.6" y="512.4"/>
      <point x="846.72" y="512.4" type="qcurve" smooth="yes"/>
      <point x="759.36" y="512.4"/>
      <point x="486.32" y="800.0"/>
      <point x="366.15999999999997" y="800.0" type="qcurve" smooth="yes"/>
      <point x="251.18" y="800.0"/>
      <point x="138.8" y="584.0"/>
    </contour>
  </outline>
</glyph>
<glyph name="exclamdown" format="2">
  <advance width="513"/>
  <unicode hex="00A1"/>
  <outline>
    <contour>
      <point x="211.52" y="-280.0" type="line"/>
      <point x="301.92" y="-280.0" type="line"/>
      <point x="294.32" y="786.4" type="line"/>
      <point x="219.12" y="786.4" type="line"/>
    </contour>
    <contour>
      <point x="186.0" y="1108.92" type="qcurve" smooth="yes"/>
      <point x="186.0" y="1072.16"/>
      <point x="222.62" y="1019.84"/>
      <point x="256.72" y="1019.84" type="qcurve" smooth="yes"/>
      <point x="290.82" y="1019.84"/>
      <point x="327.44" y="1072.16"/>
      <point x="327.44" y="1108.92" type="qcurve" smooth="yes"/>
      <point x="327.44" y="1145.68"/>
      <point x="290.82" y="1198.0"/>
      <point x="256.72" y="1198.0" type="qcurve" smooth="yes"/>
      <point x="222.62" y="1198.0"/>
      <point x="186.0" y="1145.68"/>
    </contour>
  </outline>
</glyph>
<glyph name="currency" format="2">
  <advance width="1511"/>
  <unicode hex="00A4"/>
  <outline>
    <contour>
      <point x="235.16" y="610.0" type="qcurve" smooth="yes"/>
      <point x="235.16" y="355.0"/>
      <point x="530.3594782608695" y="0.0"/>
      <point x="755.4399999999999" y="0.0" type="qcurve" smooth="yes"/>
      <point x="980.5205217391303" y="0.0"/>
      <point x="1275.8799999999999" y="355.0"/>
      <point x="1275.8799999999999" y="610.0" type="qcurve" smooth="yes"/>
      <point x="1275.8799999999999" y="865.0"/>
      <point x="980.5205217391303" y="1220.0"/>
      <point x="755.4399999999999" y="1220.0" type="qcurve" smooth="yes"/>
      <point x="530.3594782608695" y="1220.0"/>
      <point x="235.16" y="865.0"/>
    </contour>
    <contour>
      <point x="321.92" y="610.0" type="qcurve" smooth="yes"/>
      <point x="321.92" y="831.4921985815603"/>
      <point x="565.0759375" y="1134.8"/>
      <point x="755.4399999999999" y="1134.8" type="qcurve" smooth="yes"/>
      <point x="945.7978947368421" y="1134.8"/>
      <point x="1189.12" y="831.4921985815603"/>
      <point x="1189.12" y="610.0" type="qcurve" smooth="yes"/>
      <point x="1189.12" y="388.5078014184397"/>
      <point x="945.7978947368421" y="85.19999999999999"/>
      <point x="755.4399999999999" y="85.19999999999999" type="qcurve" smooth="yes"/>
      <point x="565.0759375" y="85.19999999999999"/>
      <point x="321.92" y="388.5078014184397"/>
    </contour>
    <contour>
      <point x="177.74" y="1180.88" type="line"/>
      <point x="383.74" y="982.88" type="line"/>
      <point x="443.56" y="1048.0" type="line"/>
      <point x="237.72" y="1246.0" type="line"/>
    </contour>
    <contour>
      <point x="1067.32" y="1048.0" type="line"/>
      <point x="1127.3" y="982.88" type="line"/>
      <point x="1333.1399999999999" y="1180.88" type="line"/>
      <point x="1273.1599999999999" y="1246.0" type="line"/>
    </contour>
    <contour>
      <point x="1067.32" y="172.0" type="line"/>
      <point x="1273.1599999999999" y="-26.0" type="line"/>
      <point x="1333.1399999999999" y="39.12" type="line"/>
      <point x="1127.3" y="237.12" type="line"/>
    </contour>
    <contour>
      <point x="177.74" y="39.12" type="line"/>
      <point x="237.72" y="-26.0" type="line"/>
      <point x="443.56" y="172.0" type="line"/>
      <point x="383.74" y="237.12" type="line"/>
    </contour>
  </outline>
</glyph>
<glyph name="yen" format="2">
  <advance width="1026"/>
  <unicode hex="00A5"/>
  <outline>
    <contour>
      <point x="49.56000000000001" y="294.44" type="line"/>
      <point x="975.8" y="294.44" type="line"/>
      <point x="975.8" y="374.52" type="line"/>
      <point x="49.56000000000001" y="374.52" type="line"/>
    </contour>
    <contour>
      <point x="49.56000000000001" y="590.84" type="line"/>
      <point x="975.8" y="590.84" type="line"/>
      <point x="975.8" y="670.92" type="line"/>
      <point x="49.56000000000001" y="670.92" type="line"/>
    </contour>
    <contour>
      <point x="468.42" y="0.0" type="line"/>
      <point x="557.26" y="0.0" type="line"/>
      <point x="557.26" y="592.96" type="line"/>
      <point x="1026.32" y="1456.0" type="line"/>
      <point x="936.92" y="1456.0" type="line"/>
      <point x="572.34" y="795.72" type="line" smooth="yes"/>
      <point x="555.48" y="764.92"/>
      <point x="528.52" y="705.72"/>
      <point x="516.78" y="675.72" type="qcurve"/>
      <point x="510.46" y="675.72" type="line"/>
      <point x="498.72" y="705.72"/>
      <point x="471.6" y="764.92"/>
      <point x="454.9" y="795.72" type="qcurve" smooth="yes"/>
      <point x="95.56000000000002" y="1456.0" type="line"/>
      <point x="-0.79999999999999" y="1456.0" type="line"/>
      <point x="468.42" y="592.8" type="line"/>
    </contour>
  </outline>
</glyph>
<glyph name="copyright" format="2">
  <advance width="1653"/>
  <unicode hex="00A9"/>
  <outline>
    <contour>
      <point x="94.0" y="698.0" type="qcurve" smooth="yes"/>
      <point x="94.0" y="364.0"/>
      <point x="528.26" y="-82.0"/>
      <point x="826.56" y="-82.0" type="qcurve" smooth="yes"/>
      <point x="1124.86" y="-82.0"/>
      <point x="1559.28" y="364.0"/>
      <point x="1559.28" y="698.0" type="qcurve" smooth="yes"/>
      <point x="1559.28" y="1032.0"/>
      <point x="1124.86" y="1478.0"/>
      <point x="826.56" y="1478.0" type="qcurve" smooth="yes"/>
      <point x="528.26" y="1478.0"/>
      <point x="94.0" y="1032.0"/>
    </contour>
    <contour>
      <point x="172.51999999999998" y="698.0" type="qcurve" smooth="yes"/>
      <point x="172.51999999999998" y="989.2"/>
      <point x="547.28" y="1397.28"/>
      <point x="826.56" y="1397.28" type="qcurve" smooth="yes"/>
      <point x="1106.0" y="1397.28"/>
      <point x="1480.76" y="989.2"/>
      <point x="1480.76" y="698.0" type="qcurve" smooth="yes"/>
      <point x="1480.76" y="406.8"/>
      <point x="1106.0" y="-1.2800000000000011"/>
      <point x="826.56" y="-1.2800000000000011" type="qcurve" smooth="yes"/>
      <point x="547.28" y="-1.2800000000000011"/>
      <point x="172.51999999999998" y="406.8"/>
    </contour>
    <contour>
      <point x="488.28" y="668.0" type="line" smooth="yes"/>
      <point x="488.28" y="488.0"/>
      <point x="682.2" y="264.0"/>
      <point x="827.72" y="264.0" type="qcurve" smooth="yes"/>
      <point x="964.8899470899471" y="264.0"/>
      <point x="1143.8" y="440.0"/>
      <point x="1143.8" y="570.0" type="qcurve" smooth="yes"/>
      <point x="1143.8" y="580.0" type="line"/>
      <point x="1064.76" y="580.0" type="line"/>
      <point x="1064.76" y="570.0" type="line" smooth="yes"/>
      <point x="1064.76" y="460.50602409638554"/>
      <point x="938.76" y="342.8"/>
      <point x="827.72" y="342.8" type="qcurve" smooth="yes"/>
      <point x="706.04" y="342.8"/>
      <point x="569.4" y="520.1818181818182"/>
      <point x="569.4" y="668.0" type="qcurve" smooth="yes"/>
      <point x="569.4" y="748.0" type="line" smooth="yes"/>
      <point x="569.4" y="895.8181818181818"/>
      <point x="706.04" y="1073.2"/>
      <point x="827.72" y="1073.2" type="qcurve" smooth="yes"/>
      <point x="938.76" y="1073.2"/>
      <point x="1064.76" y="955.4939759036145"/>
      <point x="1064.76" y="846.0" type="qcurve" smooth="yes"/>
      <point x="1064.76" y="836.0" type="line"/>
      <point x="1143.8" y="836.0" type="line"/>
      <point x="1143.8" y="846.0" type="line" smooth="yes"/>
      <point x="1143.8" y="976.0"/>
      <point x="964.8899470899471" y="1152.0"/>
      <point x="827.72" y="1152.0" type="qcurve" smooth="yes"/>
      <point x="682.2" y="1152.0"/>
      <point x="488.28" y="928.0"/>
      <point x="488.28" y="748.0" type="qcurve" smooth="yes"/>
    </contour>
  </outline>
</glyph>
<glyph name="logicalnot" format="2">
  <advance width="1206"/>
  <unicode hex="00AC"/>
  <outline>
    <contour>
      <point x="174.4" y="653.84" type="line"/>
      <point x="949.3199999999999" y="653.84" type="line"/>
      <point x="949.3199999999999" y="416.8" type="line"/>
      <point x="1032.08" y="416.8" type="line"/>
      <point x="1032.08" y="745.6" type="line"/>
      <point x="174.4" y="745.6" type="line"/>
    </contour>
  </outline>
</glyph>
<glyph name="macron" format="2">
  <advance width="1049"/>
  <unicode hex="00AF"/>
  <outline>
    <contour>
      <point x="237.0" y="1211.36" type="line"/>
      <point x="811.96" y="1211.36" type="line"/>
      <point x="811.96" y="1294.64" type="line"/>
      <point x="237.0" y="1294.64" type="line"/>
    </contour>
  </outline>
</glyph>
<glyph name="plusminus" format="2">
  <advance width="1170"/>
  <unicode hex="00B1"/>
  <outline>
    <contour>
      <point x="166.64000000000001" y="642.32" type="line"/>
      <point x="1003.36" y="642.32" type="line"/>
      <point x="1003.36" y="727.52" type="line"/>
      <point x="166.64000000000001" y="727.52" type="line"/>
    </contour>
    <contour>
      <point x="542.14" y="283.92" type="line"/>
      <point x="627.86" y="283.92" type="line"/>
      <point x="627.86" y="1117.76" type="line"/>
      <point x="542.14" y="1117.76" type="line"/>
    </contour>
    <contour>
      <point x="166.64000000000001" y="47.52000000000001" type="line"/>
      <point x="1003.36" y="47.52000000000001" type="line"/>
      <point x="1003.36" y="132.72" type="line"/>
      <point x="166.64000000000001" y="132.72" type="line"/>
    </contour>
  </outline>
</glyph>
<glyph name="mu.math" format="2">
  <advance width="987"/>
  <unicode hex="00B5"/>
  <outline>
    <contour>
      <point x="148.0" y="-416.0" type="line"/>
      <point x="228.32" y="-416.0" type="line"/>
      <point x="228.32" y="81.2" type="line"/>
      <point x="264.6" y="32.32"/>
      <point x="385.58" y="-20.0"/>
      <point x="457.41999999999996" y="-20.0" type="qcurve" smooth="yes"/>
      <point x="550.22" y="-20.0"/>
      <point x="704.18" y="73.28"/>
      <point x="753.92" y="144.44" type="qcurve"/>
      <point x="756.96" y="144.44" type="line"/>
      <point x="759.52" y="0.0" type="line"/>
      <point x="838.72" y="0.0" type="line"/>
      <point x="838.72" y="1052.0" type="line"/>
      <point x="750.4" y="1052.0" type="line"/>
      <point x="750.4" y="253.76" type="line"/>
      <point x="710.7" y="171.28"/>
      <point x="565.52" y="63.92"/>
      <point x="468.74" y="63.92" type="qcurve" smooth="yes"/>
      <point x="356.15999999999997" y="63.92"/>
      <point x="236.32" y="181.68"/>
      <point x="236.32" y="317.4" type="qcurve" smooth="yes"/>
      <point x="236.32" y="1052.0" type="line"/>
      <point x="148.0" y="1052.0" type="line"/>
    </contour>
  </outline>
</glyph>
<glyph name="paragraph" format="2">
  <advance width="1238"/>
  <unicode hex="00B6"/>
  <outline>
    <contour>
      <point x="100.0" y="986.0" type="qcurve" smooth="yes"/>
      <point x="100.0" y="786.0"/>
      <point x="349.6" y="513.0"/>
      <point x="536.8" y="516.0" type="qcurve" smooth="yes"/>
      <point x="594.04" y="516.0" type="line"/>
      <point x="594.04" y="-200.0" type="line"/>
      <point x="682.84" y="-200.0" type="line"/>
      <point x="682.84" y="1361.2" type="line"/>
      <point x="882.04" y="1361.2" type="line"/>
      <point x="882.04" y="-200.0" type="line"/>
      <point x="970.8399999999999" y="-200.0" type="line"/>
      <point x="970.8399999999999" y="1361.2" type="line"/>
      <point x="1163.2" y="1361.2" type="line"/>
      <point x="1163.2" y="1456.0" type="line"/>
      <point x="536.8" y="1456.0" type="line" smooth="yes"/>
      <point x="349.6" y="1456.0"/>
      <point x="100.0" y="1186.0"/>
    </contour>
  </outline>
</glyph>
<glyph name="periodcentered" format="2">
  <advance width="465"/>
  <unicode hex="00B7"/>
  <outline>
    <contour>
      <point x="160.0" y="730.0" type="qcurve" smooth="yes"/>
      <point x="160.0" y="692.28"/>
      <point x="197.4" y="639.0"/>
      <point x="232.28" y="639.0" type="qcurve" smooth="yes"/>
      <point x="267.15999999999997" y="639.0"/>
      <point x="304.56" y="692.28"/>
      <point x="304.56" y="730.0" type="qcurve" smooth="yes"/>
      <point x="304.56" y="767.72"/>
      <point x="267.15999999999997" y="821.0"/>
      <point x="232.28" y="821.0" type="qcurve" smooth="yes"/>
      <point x="197.4" y="821.0"/>
      <point x="160.0" y="767.72"/>
    </contour>
  </outline>
</glyph>
<glyph name="cedilla" format="2">
  <advance width="1024"/>
  <unicode hex="00B8"/>
  <outline>
    <contour>
      <point x="480.2" y="0.0" type="line"/>
      <point x="420.2" y="-215.0" type="line"/>
      <point x="524.92" y="-215.0"/>
      <point x="614.16" y="-274.96"/>
      <point x="614.16" y="-327.2" type="qcurve" smooth="yes"/>
      <point x="614.16" y="-389.44"/>
      <point x="478.32" y="-462.4"/>
      <point x="327.8" y="-462.4" type="qcurve"/>
      <point x="331.36" y="-536.0" type="line"/>
      <point x="536.8" y="-536.0"/>
      <point x="692.76" y="-414.96"/>
      <point x="692.76" y="-327.2" type="qcurve" smooth="yes"/>
      <point x="692.76" y="-251.04"/>
      <point x="596.06" y="-164.48000000000002"/>
      <point x="507.08" y="-152.68" type="qcurve"/>
      <point x="555.0" y="0.0" type="line"/>
    </contour>
  </outline>
</glyph>
<glyph name="questiondown" format="2">
  <advance width="776"/>
  <unicode hex="00BF"/>
  <outline>
    <contour>
      <point x="76.88000000000001" y="42.0" type="qcurve" smooth="yes"/>
      <point x="76.88000000000001" y="-105.36"/>
      <point x="249.04000000000002" y="-300.0"/>
      <point x="400.84000000000003" y="-300.0" type="qcurve" smooth="yes"/>
      <point x="553.96" y="-300.0"/>
      <point x="730.96" y="-101.76"/>
      <point x="730.96" y="61.0" type="qcurve" smooth="yes"/>
      <point x="730.96" y="81.0" type="line"/>
      <point x="642.16" y="81.0" type="line"/>
      <point x="642.16" y="61.0" type="line" smooth="yes"/>
      <point x="642.16" y="-68.6"/>
      <point x="518.84" y="-214.16000000000003"/>
      <point x="400.84000000000003" y="-214.16000000000003" type="qcurve" smooth="yes"/>
      <point x="282.68" y="-214.16000000000003"/>
      <point x="165.94" y="-70.16"/>
      <point x="165.94" y="42.0" type="qcurve" smooth="yes"/>
      <point x="165.94" y="155.44"/>
      <point x="246.26000000000002" y="304.68"/>
      <point x="325.28000000000003" y="393.96" type="qcurve" smooth="yes"/>
      <point x="406.65999999999997" y="484.52"/>
      <point x="485.4" y="640.88"/>
      <point x="485.4" y="756.0" type="qcurve" smooth="yes"/>
      <point x="485.4" y="766.0" type="line"/>
      <point x="396.34000000000003" y="766.0" type="line"/>
      <point x="396.34000000000003" y="756.0" type="line" smooth="yes"/>
      <point x="396.34000000000003" y="678.56"/>
      <point x="341.82" y="537.84"/>
      <point x="255.24" y="442.96" type="qcurve" smooth="yes"/>
      <point x="174.44" y="354.48"/>
      <point x="76.88000000000001" y="179.12"/>
    </contour>
    <contour>
      <point x="365.96" y="1108.92" type="qcurve" smooth="yes"/>
      <point x="365.96" y="1072.16"/>
      <point x="402.58" y="1019.84"/>
      <point x="436.68" y="1019.84" type="qcurve" smooth="yes"/>
      <point x="470.78" y="1019.84"/>
      <point x="507.4" y="1072.16"/>
      <point x="507.4" y="1108.92" type="qcurve" smooth="yes"/>
      <point x="507.4" y="1145.68"/>
      <point x="470.78" y="1198.0"/>
      <point x="436.68" y="1198.0" type="qcurve" smooth="yes"/>
      <point x="402.58" y="1198.0"/>
      <point x="365.96" y="1145.68"/>
    </contour>
  </outline>
</glyph>
<glyph name="AE" format="2">
  <advance width="1669"/>
  <unicode hex="00C6"/>
  <outline>
    <contour>
      <point x="-60.0" y="0.0" type="line"/>
      <point x="41.120000000000005" y="0.0" type="line"/>
      <point x="843.92" y="1369.36" type="line"/>
      <point x="853.92" y="1369.36" type="line"/>
      <point x="853.92" y="0.0" type="line"/>
      <point x="1601.36" y="0.0" type="line"/>
      <point x="1601.36" y="84.55999999999999" type="line"/>
      <point x="944.4399999999999" y="84.55999999999999" type="line"/>
      <point x="944.4399999999999" y="708.72" type="line"/>
      <point x="1495.36" y="708.72" type="line"/>
      <point x="1495.36" y="793.28" type="line"/>
      <point x="944.4399999999999" y="793.28" type="line"/>
      <point x="944.4399999999999" y="1371.44" type="line"/>
      <point x="1591.04" y="1371.44" type="line"/>
      <point x="1591.04" y="1456.0" type="line"/>
      <point x="801.1999999999999" y="1456.0" type="line"/>
    </contour>
    <contour>
      <point x="243.54" y="426.24" type="line"/>
      <point x="902.6999999999999" y="426.24" type="line"/>
      <point x="902.6999999999999" y="510.8" type="line"/>
      <point x="291.08" y="510.8" type="line"/>
    </contour>
  </outline>
</glyph>
<glyph name="multiply" format="2">
  <advance width="1170"/>
  <unicode hex="00D7"/>
  <outline>
    <contour>
      <point x="151.84" y="291.04" type="line"/>
      <point x="206.64000000000001" y="227.44" type="line"/>
      <point x="1018.16" y="1058.96" type="line"/>
      <point x="963.36" y="1122.56" type="line"/>
    </contour>
    <contour>
      <point x="151.84" y="1056.96" type="line"/>
      <point x="962.36" y="227.44" type="line"/>
      <point x="1018.16" y="293.04" type="line"/>
      <point x="207.64000000000001" y="1122.56" type="line"/>
    </contour>
  </outline>
</glyph>
<glyph name="Oslash" format="2">
  <advance width="1309"/>
  <unicode hex="00D8"/>
  <outline>
    <contour>
      <point x="49.86" y="-80.0" type="line"/>
      <point x="151.78" y="-80.0" type="line"/>
      <point x="308.98" y="150.0" type="line"/>
      <point x="306.38" y="150.0" type="line"/>
      <point x="701.5" y="726.0" type="line"/>
      <point x="608.14" y="726.0" type="line"/>
      <point x="280.9" y="250.0" type="line"/>
      <point x="277.98" y="250.0" type="line"/>
    </contour>
    <contour>
      <point x="608.14" y="726.0" type="line"/>
      <point x="701.5" y="726.0" type="line"/>
      <point x="1028.58" y="1202.0" type="line"/>
      <point x="1031.34" y="1202.0" type="line"/>
      <point x="1259.62" y="1532.0" type="line"/>
      <point x="1157.86" y="1532.0" type="line"/>
      <point x="1000.66" y="1302.0" type="line"/>
      <point x="1003.42" y="1302.0" type="line"/>
    </contour>
    <contour>
      <point x="118.03999999999999" y="682.0" type="line" smooth="yes"/>
      <point x="118.03999999999999" y="346.0"/>
      <point x="418.5" y="-30.0"/>
      <point x="654.66" y="-30.0" type="qcurve" smooth="yes"/>
      <point x="890.8199999999999" y="-30.0"/>
      <point x="1191.44" y="346.0"/>
      <point x="1191.44" y="682.0" type="qcurve" smooth="yes"/>
      <point x="1191.44" y="774.0" type="line" smooth="yes"/>
      <point x="1191.44" y="1110.0"/>
      <point x="890.8199999999999" y="1486.0"/>
      <point x="654.66" y="1486.0" type="qcurve" smooth="yes"/>
      <point x="418.5" y="1486.0"/>
      <point x="118.03999999999999" y="1110.0"/>
      <point x="118.03999999999999" y="774.0" type="qcurve" smooth="yes"/>
    </contour>
    <contour>
      <point x="209.18" y="682.0" type="qcurve" smooth="yes"/>
      <point x="209.18" y="774.0" type="line" smooth="yes"/>
      <point x="209.18" y="1070.8"/>
      <point x="455.58" y="1399.52"/>
      <point x="654.66" y="1399.52" type="qcurve" smooth="yes"/>
      <point x="853.9" y="1399.52"/>
      <point x="1100.3" y="1070.8"/>
      <point x="1100.3" y="774.0" type="qcurve" smooth="yes"/>
      <point x="1100.3" y="682.0" type="line" smooth="yes"/>
      <point x="1100.3" y="385.2"/>
      <point x="853.74" y="56.47999999999999"/>
      <point x="654.66" y="56.47999999999999" type="qcurve" smooth="yes"/>
      <point x="455.58" y="56.47999999999999"/>
      <point x="209.18" y="385.2"/>
    </contour>
  </outline>
</glyph>
<glyph name="Thorn" format="2">
  <advance width="1086"/>
  <unicode hex="00DE"/>
  <outline>
    <contour>
      <point x="170.0" y="0.0" type="line"/>
      <point x="259.88" y="0.0" type="line"/>
      <point x="259.88" y="308.36" type="line"/>
      <point x="575.64" y="308.36" type="line" smooth="yes"/>
      <point x="782.24" y="308.36"/>
      <point x="985.7" y="547.24"/>
      <point x="985.7" y="735.0" type="qcurve" smooth="yes"/>
      <point x="985.7" y="922.76"/>
      <point x="782.24" y="1160.36"/>
      <point x="575.64" y="1160.36" type="qcurve" smooth="yes"/>
      <point x="259.88" y="1160.36" type="line"/>
      <point x="259.88" y="1456.0" type="line"/>
      <point x="170.0" y="1456.0" type="line"/>
    </contour>
    <contour>
      <point x="259.88" y="392.92" type="line"/>
      <point x="259.88" y="1075.8" type="line"/>
      <point x="575.64" y="1075.8" type="line" smooth="yes"/>
      <point x="753.16" y="1075.8"/>
      <point x="895.0799999999999" y="880.84"/>
      <point x="895.0799999999999" y="735.0" type="qcurve" smooth="yes"/>
      <point x="895.0799999999999" y="589.16"/>
      <point x="753.16" y="392.92"/>
      <point x="575.64" y="392.92" type="qcurve" smooth="yes"/>
    </contour>
  </outline>
</glyph>
<glyph name="germandbls" format="2">
  <advance width="1056"/>
  <unicode hex="00DF"/>
  <outline>
    <contour>
      <point x="140.0" y="0.0" type="line"/>
      <point x="228.32" y="0.0" type="line"/>
      <point x="228.32" y="1110.0" type="line" smooth="yes"/>
      <point x="228.32" y="1295.36"/>
      <point x="350.7994007490637" y="1473.36"/>
      <point x="458.32" y="1473.36" type="qcurve" smooth="yes"/>
      <point x="565.6121810699589" y="1473.36"/>
      <point x="666.56" y="1326.72"/>
      <point x="666.56" y="1223.6" type="qcurve" smooth="yes"/>
      <point x="666.56" y="1163.52"/>
      <point x="630.6" y="1069.04"/>
      <point x="604.16" y="1029.0" type="qcurve" smooth="yes"/>
      <point x="575.1667082046612" y="984.16291054885"/>
      <point x="523.92" y="888.0"/>
      <point x="523.92" y="822.0" type="qcurve" smooth="yes"/>
      <point x="523.92" y="730.0"/>
      <point x="620.6" y="603.0"/>
      <point x="682.0" y="553.0" type="qcurve" smooth="yes"/>
      <point x="758.5799999999999" y="491.28"/>
      <point x="886.84" y="366.64"/>
      <point x="886.84" y="280.8" type="qcurve" smooth="yes"/>
      <point x="886.84" y="185.44"/>
      <point x="773.9137499999999" y="62.64"/>
      <point x="666.3199999999999" y="62.64" type="qcurve" smooth="yes"/>
      <point x="589.44" y="62.64"/>
      <point x="458.32" y="112.64"/>
      <point x="423.03999999999996" y="136.64" type="qcurve"/>
      <point x="382.84" y="60.0" type="line"/>
      <point x="422.96" y="31.36"/>
      <point x="580.2" y="-20.0"/>
      <point x="676.8" y="-20.0" type="qcurve" smooth="yes"/>
      <point x="804.5" y="-20.0"/>
      <point x="975.8" y="136.4"/>
      <point x="975.8" y="288.8" type="qcurve" smooth="yes"/>
      <point x="975.8" y="404.72"/>
      <point x="813.62" y="559.68"/>
      <point x="735.06" y="623.0" type="qcurve" smooth="yes"/>
      <point x="683.12" y="665.08"/>
      <point x="611.72" y="758.12"/>
      <point x="611.72" y="820.0" type="qcurve" smooth="yes"/>
      <point x="611.72" y="868.36"/>
      <point x="647.42" y="941.72"/>
      <point x="670.96" y="978.4" type="qcurve" smooth="yes"/>
      <point x="700.3" y="1024.44"/>
      <point x="753.24" y="1139.52"/>
      <point x="753.24" y="1233.6" type="qcurve" smooth="yes"/>
      <point x="753.24" y="1368.16"/>
      <point x="598.2" y="1556.0"/>
      <point x="458.32" y="1556.0" type="qcurve" smooth="yes"/>
      <point x="318.6" y="1556.0"/>
      <point x="140.0" y="1330.0"/>
      <point x="140.0" y="1110.0" type="qcurve" smooth="yes"/>
    </contour>
  </outline>
</glyph>
<glyph name="eth" format="2">
  <advance width="975"/>
  <unicode hex="00F0"/>
  <outline>
    <contour>
      <point x="80.0" y="474.0" type="qcurve" smooth="yes"/>
      <point x="80.0" y="248.32"/>
      <point x="291.6" y="-30.0"/>
      <point x="464.08" y="-30.0" type="qcurve" smooth="yes"/>
      <point x="636.56" y="-30.0"/>
      <point x="854.86" y="324.0"/>
      <point x="854.86" y="724.0" type="qcurve" smooth="yes"/>
      <point x="854.86" y="804.0" type="line" smooth="yes"/>
      <point x="854.86" y="1201.28"/>
      <point x="661.88" y="1556.0"/>
      <point x="443.28" y="1556.0" type="qcurve" smooth="yes"/>
      <point x="326.5" y="1556.0"/>
      <point x="141.94" y="1443.2"/>
      <point x="98.03999999999999" y="1376.8" type="qcurve"/>
      <point x="152.34" y="1318.0" type="line"/>
      <point x="196.999340392004" y="1378.134845540649"/>
      <point x="341.6994594594595" y="1471.44"/>
      <point x="443.28" y="1471.44" type="qcurve" smooth="yes"/>
      <point x="613.5536842105263" y="1471.44"/>
      <point x="766.8" y="1185.28"/>
      <point x="766.8" y="814.0" type="qcurve" smooth="yes"/>
      <point x="766.8" y="714.0" type="line" smooth="yes"/>
      <point x="766.8" y="331.15999999999997"/>
      <point x="599.598647887324" y="54.55999999999999"/>
      <point x="464.08" y="54.55999999999999" type="qcurve" smooth="yes"/>
      <point x="328.1314782608696" y="54.55999999999999"/>
      <point x="169.36" y="274.32"/>
      <point x="169.36" y="474.0" type="qcurve" smooth="yes"/>
      <point x="169.36" y="673.68"/>
      <point x="328.1314782608696" y="891.44"/>
      <point x="464.08" y="891.44" type="qcurve" smooth="yes"/>
      <point x="586.4877348066299" y="891.44"/>
      <point x="771.8399999999999" y="666.88"/>
      <point x="771.8399999999999" y="474.0" type="qcurve"/>
      <point x="815.12" y="474.0" type="line"/>
      <point x="815.12" y="699.68"/>
      <point x="613.03296" y="976.0"/>
      <point x="444.68" y="976.0" type="qcurve" smooth="yes"/>
      <point x="282.52" y="976.0"/>
      <point x="80.0" y="699.68"/>
    </contour>
    <contour>
      <point x="376.94" y="1162.8" type="line"/>
      <point x="418.46" y="1095.84" type="line"/>
      <point x="895.0" y="1411.64" type="line"/>
      <point x="853.48" y="1478.6" type="line"/>
    </contour>
  </outline>
</glyph>
<glyph name="divide" format="2">
  <advance width="1170"/>
  <unicode hex="00F7"/>
  <outline>
    <contour>
      <point x="114.56" y="629.4" type="line"/>
      <point x="1055.44" y="629.4" type="line"/>
      <point x="1055.44" y="718.6" type="line"/>
      <point x="114.56" y="718.6" type="line"/>
    </contour>
    <contour>
      <point x="514.28" y="295.08" type="qcurve" smooth="yes"/>
      <point x="514.28" y="258.32"/>
      <point x="550.9" y="206.0"/>
      <point x="585.0" y="206.0" type="qcurve" smooth="yes"/>
      <point x="619.1" y="206.0"/>
      <point x="655.72" y="258.32"/>
      <point x="655.72" y="295.08" type="qcurve" smooth="yes"/>
      <point x="655.72" y="331.84"/>
      <point x="619.1" y="384.15999999999997"/>
      <point x="585.0" y="384.15999999999997" type="qcurve" smooth="yes"/>
      <point x="550.9" y="384.15999999999997"/>
      <point x="514.28" y="331.84"/>
    </contour>
    <contour>
      <point x="514.28" y="1052.92" type="qcurve" smooth="yes"/>
      <point x="514.28" y="1016.16"/>
      <point x="550.9" y="963.84"/>
      <point x="585.0" y="963.84" type="qcurve" smooth="yes"/>
      <point x="619.1" y="963.84"/>
      <point x="655.72" y="1016.16"/>
      <point x="655.72" y="1052.92" type="qcurve" smooth="yes"/>
      <point x="655.72" y="1089.68"/>
      <point x="619.1" y="1142.0"/>
      <point x="585.0" y="1142.0" type="qcurve" smooth="yes"/>
      <point x="550.9" y="1142.0"/>
      <point x="514.28" y="1089.68"/>
    </contour>
  </outline>
</glyph>
<glyph name="oslash" format="2">
  <advance width="1000"/>
  <unicode hex="00F8"/>
  <outline>
    <contour>
      <point x="85.0" y="510.0" type="line" smooth="yes"/>
      <point x="85.0" y="272.0"/>
      <point x="311.12" y="-30.0"/>
      <point x="500.2" y="-30.0" type="qcurve" smooth="yes"/>
      <point x="689.4399999999999" y="-30.0"/>
      <point x="915.4" y="272.0"/>
      <point x="915.4" y="510.0" type="qcurve" smooth="yes"/>
      <point x="915.4" y="542.0" type="line" smooth="yes"/>
      <point x="915.4" y="780.0"/>
      <point x="689.4399999999999" y="1082.0"/>
      <point x="500.2" y="1082.0" type="qcurve" smooth="yes"/>
      <point x="311.12" y="1082.0"/>
      <point x="85.0" y="780.0"/>
      <point x="85.0" y="542.0" type="qcurve" smooth="yes"/>
    </contour>
    <contour>
      <point x="182.04" y="542.0" type="line" smooth="yes"/>
      <point x="182.04" y="734.24"/>
      <point x="343.6" y="999.36"/>
      <point x="500.2" y="999.36" type="qcurve" smooth="yes"/>
      <point x="656.8" y="999.36"/>
      <point x="818.52" y="734.24"/>
      <point x="818.52" y="542.0" type="qcurve" smooth="yes"/>
      <point x="818.52" y="510.0" type="line" smooth="yes"/>
      <point x="818.52" y="317.76"/>
      <point x="656.8" y="52.64"/>
      <point x="500.2" y="52.64" type="qcurve" smooth="yes"/>
      <point x="343.6" y="52.64"/>
      <point x="182.04" y="317.76"/>
      <point x="182.04" y="510.0" type="qcurve" smooth="yes"/>
    </contour>
    <contour>
      <point x="83.62" y="-120.0" type="line"/>
      <point x="171.02" y="-120.0" type="line"/>
      <point x="279.04" y="68.0" type="line"/>
      <point x="277.58000000000004" y="68.0" type="line"/>
      <point x="539.74" y="526.0" type="line"/>
      <point x="460.98" y="526.0" type="line"/>
      <point x="243.54" y="150.0" type="line"/>
      <point x="242.07999999999998" y="150.0" type="line"/>
    </contour>
    <contour>
      <point x="460.98" y="526.0" type="line"/>
      <point x="539.74" y="526.0" type="line"/>
      <point x="757.18" y="902.0" type="line"/>
      <point x="758.48" y="902.0" type="line"/>
      <point x="916.78" y="1172.0" type="line"/>
      <point x="829.38" y="1172.0" type="line"/>
      <point x="722.0" y="984.0" type="line"/>
      <point x="723.3" y="984.0" type="line"/>
    </contour>
  </outline>
</glyph>
<glyph name="thorn" format="2">
  <advance width="1009"/>
  <unicode hex="00FE"/>
  <outline>
    <contour>
      <point x="148.0" y="-416.0" type="line"/>
      <point x="236.32" y="-416.0" type="line"/>
      <point x="236.32" y="125.44" type="line"/>
      <point x="282.06" y="62.76"/>
      <point x="439.65999999999997" y="-20.0"/>
      <point x="544.96" y="-20.0" type="qcurve" smooth="yes"/>
      <point x="723.36" y="-20.0"/>
      <point x="924.12" y="280.64"/>
      <point x="924.12" y="510.0" type="qcurve" smooth="yes"/>
      <point x="924.12" y="542.0" type="line" smooth="yes"/>
      <point x="924.12" y="771.36"/>
      <point x="723.36" y="1072.0"/>
      <point x="544.96" y="1072.0" type="qcurve" smooth="yes"/>
      <point x="439.65999999999997" y="1072.0"/>
      <point x="274.4" y="977.68"/>
      <point x="236.32" y="916.76" type="qcurve"/>
      <point x="236.32" y="1536.0" type="line"/>
      <point x="148.0" y="1536.0" type="line"/>
    </contour>
    <contour>
      <point x="236.32" y="244.0" type="qcurve"/>
      <point x="236.32" y="808.0" type="line"/>
      <point x="268.6" y="878.84"/>
      <point x="418.84000000000003" y="989.36"/>
      <point x="525.56" y="989.36" type="qcurve" smooth="yes"/>
      <point x="685.48" y="989.36"/>
      <point x="834.76" y="731.24"/>
      <point x="834.76" y="542.0" type="qcurve" smooth="yes"/>
      <point x="834.76" y="510.0" type="line" smooth="yes"/>
      <point x="834.76" y="320.76"/>
      <point x="685.48" y="62.64"/>
      <point x="525.56" y="62.64" type="qcurve" smooth="yes"/>
      <point x="418.84000000000003" y="62.64"/>
      <point x="268.6" y="173.16"/>
    </contour>
  </outline>
</glyph>
<glyph name="OE" format="2">
  <advance width="1758"/>
  <unicode hex="0152"/>
  <outline>
    <contour>
      <point x="115.0" y="682.0" type="line" smooth="yes"/>
      <point x="115.0" y="346.0"/>
      <point x="416.03999999999996" y="-30.0"/>
      <point x="651.62" y="-30.0" type="qcurve" smooth="yes"/>
      <point x="749.36" y="-30.0"/>
      <point x="929.8199999999999" y="40.48"/>
      <point x="989.94" y="107.6" type="qcurve"/>
      <point x="989.94" y="240.48" type="line"/>
      <point x="940.72" y="156.88"/>
      <point x="767.1999999999999" y="56.47999999999999"/>
      <point x="651.62" y="56.47999999999999" type="qcurve" smooth="yes"/>
      <point x="450.58" y="56.47999999999999"/>
      <point x="206.14" y="389.96"/>
      <point x="206.14" y="682.0" type="qcurve" smooth="yes"/>
      <point x="206.14" y="774.0" type="line" smooth="yes"/>
      <point x="206.14" y="1066.04"/>
      <point x="450.58" y="1399.52"/>
      <point x="651.62" y="1399.52" type="qcurve" smooth="yes"/>
      <point x="767.1999999999999" y="1399.52"/>
      <point x="940.72" y="1299.12"/>
      <point x="989.94" y="1215.52" type="qcurve"/>
      <point x="989.94" y="1348.4" type="line"/>
      <point x="929.8199999999999" y="1415.52"/>
      <point x="749.36" y="1486.0"/>
      <point x="651.62" y="1486.0" type="qcurve" smooth="yes"/>
      <point x="416.03999999999996" y="1486.0"/>
      <point x="115.0" y="1110.0"/>
      <point x="115.0" y="774.0" type="qcurve" smooth="yes"/>
    </contour>
    <contour>
      <point x="942.8199999999999" y="0.0" type="line"/>
      <point x="1690.26" y="0.0" type="line"/>
      <point x="1690.26" y="84.55999999999999" type="line"/>
      <point x="1032.7" y="84.55999999999999" type="line"/>
      <point x="1032.7" y="708.72" type="line"/>
      <point x="1584.26" y="708.72" type="line"/>
      <point x="1584.26" y="793.28" type="line"/>
      <point x="1032.7" y="793.28" type="line"/>
      <point x="1032.7" y="1371.44" type="line"/>
      <point x="1679.94" y="1371.44" type="line"/>
      <point x="1679.94" y="1456.0" type="line"/>
      <point x="942.8199999999999" y="1456.0" type="line"/>
    </contour>
  </outline>
</glyph>
<glyph name="circumflex" format="2">
  <advance width="1050"/>
  <unicode hex="02C6"/>
  <outline>
    <contour>
      <point x="213.9" y="1156.0" type="line"/>
      <point x="307.1" y="1156.0" type="line"/>
      <point x="524.96" y="1391.68" type="line"/>
      <point x="742.8199999999999" y="1156.0" type="line"/>
      <point x="836.02" y="1156.0" type="line"/>
      <point x="572.84" y="1456.0" type="line"/>
      <point x="477.08" y="1456.0" type="line"/>
    </contour>
  </outline>
</glyph>
<glyph name="ring" format="2">
  <advance width="1043"/>
  <unicode hex="02DA"/>
  <outline>
    <contour>
      <point x="328.24" y="1361.0" type="qcurve" smooth="yes"/>
      <point x="328.24" y="1262.0"/>
      <point x="441.28" y="1132.0"/>
      <point x="521.6" y="1132.0" type="qcurve" smooth="yes"/>
      <point x="601.92" y="1132.0"/>
      <point x="714.96" y="1262.0"/>
      <point x="714.96" y="1361.0" type="qcurve" smooth="yes"/>
      <point x="714.96" y="1460.0"/>
      <point x="601.92" y="1590.0"/>
      <point x="521.6" y="1590.0" type="qcurve" smooth="yes"/>
      <point x="441.28" y="1590.0"/>
      <point x="328.24" y="1460.0"/>
    </contour>
    <contour>
      <point x="396.0" y="1361.0" type="qcurve" smooth="yes"/>
      <point x="396.0" y="1431.72"/>
      <point x="467.44" y="1522.88"/>
      <point x="521.6" y="1522.88" type="qcurve" smooth="yes"/>
      <point x="575.76" y="1522.88"/>
      <point x="647.2" y="1431.72"/>
      <point x="647.2" y="1361.0" type="qcurve" smooth="yes"/>
      <point x="647.2" y="1290.28"/>
      <point x="575.76" y="1199.12"/>
      <point x="521.6" y="1199.12" type="qcurve" smooth="yes"/>
      <point x="467.44" y="1199.12"/>
      <point x="396.0" y="1290.28"/>
    </contour>
  </outline>
</glyph>
<glyph name="tilde" format="2">
  <advance width="1052"/>
  <unicode hex="02DC"/>
  <outline>
    <contour>
      <point x="214.76" y="1151.28" type="qcurve"/>
      <point x="284.0" y="1148.0" type="line"/>
      <point x="284.0" y="1223.0214141414142"/>
      <point x="330.0" y="1320.56"/>
      <point x="380.0" y="1320.56" type="qcurve" smooth="yes"/>
      <point x="435.92" y="1320.56"/>
      <point x="603.56" y="1160.0"/>
      <point x="676.76" y="1160.0" type="qcurve" smooth="yes"/>
      <point x="750.48" y="1160.0"/>
      <point x="839.4" y="1301.36"/>
      <point x="839.4" y="1408.72" type="qcurve"/>
      <point x="770.16" y="1412.0" type="line"/>
      <point x="770.16" y="1336.701090909091"/>
      <point x="724.16" y="1239.44"/>
      <point x="674.16" y="1239.44" type="qcurve" smooth="yes"/>
      <point x="618.24" y="1239.44"/>
      <point x="450.6" y="1400.0"/>
      <point x="377.4" y="1400.0" type="qcurve" smooth="yes"/>
      <point x="303.68" y="1400.0"/>
      <point x="214.76" y="1258.64"/>
    </contour>
  </outline>
</glyph>
<glyph name="endash" format="2">
  <advance width="1299"/>
  <unicode hex="2013"/>
  <outline>
    <contour>
      <point x="124.0" y="592.96" type="line"/>
      <point x="1175.04" y="592.96" type="line"/>
      <point x="1175.04" y="682.0" type="line"/>
      <point x="124.0" y="682.0" type="line"/>
    </contour>
  </outline>
</glyph>
<glyph name="quoteright" format="2">
  <advance width="360"/>
  <unicode hex="2019"/>
  <outline>
    <contour>
      <point x="81.44" y="1158.16" type="qcurve"/>
      <point x="145.74" y="1115.76" type="line"/>
      <point x="189.96" y="1164.4"/>
      <point x="240.07999999999998" y="1288.56"/>
      <point x="240.07999999999998" y="1368.64" type="qcurve" smooth="yes"/>
      <point x="240.07999999999998" y="1456.0" type="line"/>
      <point x="140.0" y="1456.0" type="line"/>
      <point x="140.0" y="1368.64" type="line" smooth="yes"/>
      <point x="140.0" y="1303.12"/>
      <point x="110.2" y="1204.48"/>
    </contour>
  </outline>
</glyph>
<glyph name="quotesinglbase" format="2">
  <advance width="360"/>
  <unicode hex="201A"/>
  <outline>
    <contour>
      <point x="81.44" y="-137.68" type="qcurve"/>
      <point x="145.74" y="-180.07999999999998" type="line"/>
      <point x="189.96" y="-131.44"/>
      <point x="240.07999999999998" y="-7.279999999999999"/>
      <point x="240.07999999999998" y="72.8" type="qcurve" smooth="yes"/>
      <point x="240.07999999999998" y="160.16" type="line"/>
      <point x="140.0" y="160.16" type="line"/>
      <point x="140.0" y="72.8" type="line" smooth="yes"/>
      <point x="140.0" y="7.279999999999999"/>
      <point x="110.2" y="-91.36"/>
    </contour>
  </outline>
</glyph>
<glyph name="quotedblleft" format="2">
  <advance width="660"/>
  <unicode hex="201C"/>
  <outline>
    <contour>
      <point x="120.0" y="1161.76" type="line"/>
      <point x="220.07999999999998" y="1161.76" type="line"/>
      <point x="220.07999999999998" y="1249.12" type="line" smooth="yes"/>
      <point x="220.07999999999998" y="1314.64"/>
      <point x="249.88" y="1413.28"/>
      <point x="278.64" y="1459.6" type="qcurve"/>
      <point x="214.34" y="1502.0" type="line"/>
      <point x="170.12" y="1453.36"/>
      <point x="120.0" y="1329.2"/>
      <point x="120.0" y="1249.12" type="qcurve" smooth="yes"/>
    </contour>
    <contour>
      <point x="420.08" y="1161.76" type="line"/>
      <point x="520.16" y="1161.76" type="line"/>
      <point x="520.16" y="1249.12" type="line" smooth="yes"/>
      <point x="520.16" y="1314.64"/>
      <point x="549.96" y="1413.28"/>
      <point x="578.72" y="1459.6" type="qcurve"/>
      <point x="514.4200000000001" y="1502.0" type="line"/>
      <point x="470.2" y="1453.36"/>
      <point x="420.08" y="1329.2"/>
      <point x="420.08" y="1249.12" type="qcurve" smooth="yes"/>
    </contour>
  </outline>
</glyph>
<glyph name="dagger" format="2">
  <advance width="1071"/>
  <unicode hex="2020"/>
  <outline>
    <contour>
      <point x="507.6" y="-220.0" type="line"/>
      <point x="563.2" y="-220.0" type="line"/>
      <point x="579.9" y="524.0" type="line"/>
      <point x="567.1" y="1020.0" type="line"/>
      <point x="584.9" y="1516.0" type="line"/>
      <point x="485.9" y="1516.0" type="line"/>
      <point x="503.7" y="1020.0" type="line"/>
      <point x="490.9" y="524.0" type="line"/>
    </contour>
    <contour>
      <point x="50.16000000000001" y="977.6" type="line"/>
      <point x="535.4" y="987.4" type="line"/>
      <point x="1020.64" y="977.6" type="line"/>
      <point x="1020.64" y="1072.4" type="line"/>
      <point x="535.4" y="1062.6" type="line"/>
      <point x="50.16000000000001" y="1072.4" type="line"/>
    </contour>
  </outline>
</glyph>
<glyph name="guilsinglright" format="2">
  <advance width="567"/>
  <unicode hex="203A"/>
  <outline>
    <contour>
      <point x="158.0" y="204.0" type="line"/>
      <point x="495.46" y="592.0" type="line"/>
      <point x="495.46" y="612.0" type="line"/>
      <point x="158.0" y="1000.0" type="line"/>
      <point x="66.0" y="1000.0" type="line"/>
      <point x="387.53999999999996" y="602.0" type="line"/>
      <point x="66.0" y="204.0" type="line"/>
    </contour>
  </outline>
</glyph>
<glyph name="fraction" format="2">
  <advance width="1073"/>
  <unicode hex="2044"/>
  <outline>
    <contour>
      <point x="30.0" y="19.439999999999998" type="line"/>
      <point x="94.64" y="-30.0" type="line"/>
      <point x="1042.8799999999999" y="1436.56" type="line"/>
      <point x="978.24" y="1486.0" type="line"/>
    </contour>
  </outline>
</glyph>
<glyph name="Euro" format="2">
  <advance width="997"/>
  <unicode hex="20AC"/>
  <outline>
    <contour>
      <point x="175.6" y="642.0" type="line" smooth="yes"/>
      <point x="175.6" y="316.0"/>
      <point x="403.2" y="-30.0"/>
      <point x="605.4399999999999" y="-30.0" type="qcurve" smooth="yes"/>
      <point x="783.92" y="-30.0"/>
      <point x="967.0799999999999" y="219.0"/>
      <point x="967.0799999999999" y="396.0" type="qcurve" smooth="yes"/>
      <point x="967.0799999999999" y="406.0" type="line"/>
      <point x="879.1999999999999" y="406.0" type="line"/>
      <point x="879.1999999999999" y="396.0" type="line" smooth="yes"/>
      <point x="879.1999999999999" y="253.36"/>
      <point x="755.1524999999999" y="56.47999999999999"/>
      <point x="605.4399999999999" y="56.47999999999999" type="qcurve" smooth="yes"/>
      <point x="442.6" y="56.47999999999999"/>
      <point x="264.96" y="335.2"/>
      <point x="264.96" y="642.0" type="qcurve" smooth="yes"/>
      <point x="264.96" y="814.0" type="line" smooth="yes"/>
      <point x="264.96" y="1120.8"/>
      <point x="442.6" y="1399.52"/>
      <point x="605.4399999999999" y="1399.52" type="qcurve" smooth="yes"/>
      <point x="755.1524999999999" y="1399.52"/>
      <point x="879.1999999999999" y="1202.64"/>
      <point x="879.1999999999999" y="1060.0" type="qcurve" smooth="yes"/>
      <point x="879.1999999999999" y="1050.0" type="line"/>
      <point x="967.0799999999999" y="1050.0" type="line"/>
      <point x="967.0799999999999" y="1060.0" type="line" smooth="yes"/>
      <point x="967.0799999999999" y="1237.0"/>
      <point x="783.92" y="1486.0"/>
      <point x="605.4399999999999" y="1486.0" type="qcurve" smooth="yes"/>
      <point x="403.2" y="1486.0"/>
      <point x="175.6" y="1140.0"/>
      <point x="175.6" y="814.0" type="qcurve" smooth="yes"/>
    </contour>
    <contour>
      <point x="30.0" y="558.08" type="line"/>
      <point x="792.64" y="558.08" type="line"/>
      <point x="792.64" y="642.0" type="line"/>
      <point x="30.0" y="642.0" type="line"/>
    </contour>
    <contour>
      <point x="30.0" y="814.0" type="line"/>
      <point x="792.64" y="814.0" type="line"/>
      <point x="792.64" y="897.92" type="line"/>
      <point x="30.0" y="897.92" type="line"/>
    </contour>
  </outline>
</glyph>
<glyph name="numero" format="2">
  <advance width="2220"/>
  <unicode hex="2116"/>
  <outline>
    <contour>
      <point x="170.0" y="0.0" type="line"/>
      <point x="258.84000000000003" y="0.0" type="line"/>
      <point x="258.84000000000003" y="1154.2" type="line" smooth="yes"/>
      <point x="258.84000000000003" y="1184.2"/>
      <point x="254.84" y="1259.2"/>
      <point x="250.84" y="1289.2" type="qcurve"/>
      <point x="260.84000000000003" y="1289.2" type="line"/>
      <point x="274.84000000000003" y="1264.2"/>
      <point x="310.06" y="1204.68"/>
      <point x="330.76" y="1174.36" type="qcurve" smooth="yes"/>
      <point x="1020.56" y="0.0" type="line"/>
      <point x="1121.56" y="0.0" type="line"/>
      <point x="1121.56" y="1456.0" type="line"/>
      <point x="1032.72" y="1456.0" type="line"/>
      <point x="1032.72" y="301.8" type="line" smooth="yes"/>
      <point x="1032.72" y="271.8"/>
      <point x="1036.72" y="195.52"/>
      <point x="1040.72" y="166.8" type="qcurve"/>
      <point x="1030.72" y="166.8" type="line"/>
      <point x="1016.72" y="191.8"/>
      <point x="981.0799999999999" y="251.8"/>
      <point x="960.64" y="281.8" type="qcurve" smooth="yes"/>
      <point x="271.15999999999997" y="1456.0" type="line"/>
      <point x="170.0" y="1456.0" type="line"/>
    </contour>
    <contour>
      <point x="1299.96" y="177.6" type="line"/>
      <point x="1299.96" y="264.4" type="line"/>
      <point x="2087.88" y="264.4" type="line"/>
      <point x="2087.88" y="177.6" type="line"/>
    </contour>
    <contour>
      <point x="1287.96" y="964.0" type="qcurve" smooth="yes"/>
      <point x="1287.96" y="984.0" type="line" smooth="yes"/>
      <point x="1287.96" y="1195.36"/>
      <point x="1502.1399999999999" y="1476.0"/>
      <point x="1693.92" y="1476.0" type="qcurve" smooth="yes"/>
      <point x="1885.6999999999998" y="1476.0"/>
      <point x="2099.88" y="1195.36"/>
      <point x="2099.88" y="984.0" type="qcurve" smooth="yes"/>
      <point x="2099.88" y="964.0" type="line" smooth="yes"/>
      <point x="2099.88" y="752.64"/>
      <point x="1885.6999999999998" y="472.0"/>
      <point x="1693.92" y="472.0" type="qcurve" smooth="yes"/>
      <point x="1502.1399999999999" y="472.0"/>
      <point x="1287.96" y="752.64"/>
    </contour>
    <contour>
      <point x="1374.72" y="964.0" type="line" smooth="yes"/>
      <point x="1374.72" y="784.76"/>
      <point x="1535.8" y="554.64"/>
      <point x="1693.92" y="554.64" type="qcurve" smooth="yes"/>
      <point x="1852.04" y="554.64"/>
      <point x="2013.12" y="784.76"/>
      <point x="2013.12" y="964.0" type="qcurve" smooth="yes"/>
      <point x="2013.12" y="984.0" type="line" smooth="yes"/>
      <point x="2013.12" y="1163.24"/>
      <point x="1852.04" y="1393.36"/>
      <point x="1693.92" y="1393.36" type="qcurve" smooth="yes"/>
      <point x="1535.8" y="1393.36"/>
      <point x="1374.72" y="1163.24"/>
      <point x="1374.72" y="984.0" type="qcurve" smooth="yes"/>
    </contour>
  </outline>
</glyph>
<glyph name="f_f_i" format="2">
  <advance width="1493"/>
  <unicode hex="FB03"/>
  <outline>
    <contour>
      <point x="202.88" y="0.0" type="line"/>
      <point x="291.2" y="0.0" type="line"/>
      <point x="291.2" y="1005.36" type="line"/>
      <point x="291.2" y="1019.2" type="line"/>
      <point x="291.2" y="1193.6" type="line" smooth="yes"/>
      <point x="291.2" y="1334.2"/>
      <point x="409.92" y="1474.8"/>
      <point x="529.04" y="1474.8" type="qcurve" smooth="yes"/>
      <point x="581.96" y="1474.8"/>
      <point x="680.36" y="1451.28"/>
      <point x="723.0" y="1434.16" type="qcurve"/>
      <point x="744.12" y="1510.96" type="line"/>
      <point x="693.7" y="1531.28"/>
      <point x="584.74" y="1556.0"/>
      <point x="529.04" y="1556.0" type="qcurve" smooth="yes"/>
      <point x="375.48" y="1556.0"/>
      <point x="202.88" y="1370.8"/>
      <point x="202.88" y="1193.6" type="qcurve" smooth="yes"/>
    </contour>
    <contour>
      <point x="25.0" y="972.56" type="line"/>
      <point x="572.92" y="972.56" type="line"/>
      <point x="572.92" y="1052.0" type="line"/>
      <point x="261.36" y="1052.0" type="line"/>
      <point x="240.07999999999998" y="1052.0" type="line"/>
      <point x="25.0" y="1052.0" type="line"/>
    </contour>
    <contour>
      <point x="726.08" y="0.0" type="line"/>
      <point x="814.56" y="0.0" type="line"/>
      <point x="814.56" y="1005.36" type="line"/>
      <point x="814.56" y="1019.2" type="line"/>
      <point x="814.56" y="1193.6" type="line" smooth="yes"/>
      <point x="814.56" y="1334.2"/>
      <point x="930.56" y="1474.8"/>
      <point x="1048.56" y="1474.8" type="qcurve" smooth="yes"/>
      <point x="1104.12" y="1474.8"/>
      <point x="1206.6399999999999" y="1448.08"/>
      <point x="1251.68" y="1429.68" type="qcurve"/>
      <point x="1273.1599999999999" y="1505.52" type="line"/>
      <point x="1220.8799999999999" y="1528.08"/>
      <point x="1106.6399999999999" y="1556.0"/>
      <point x="1048.56" y="1556.0" type="qcurve" smooth="yes"/>
      <point x="896.92" y="1556.0"/>
      <point x="726.08" y="1370.8"/>
      <point x="726.08" y="1193.6" type="qcurve" smooth="yes"/>
    </contour>
    <contour>
      <point x="551.28" y="972.56" type="line"/>
      <point x="1093.12" y="972.56" type="line"/>
      <point x="1093.12" y="1052.0" type="line"/>
      <point x="787.64" y="1052.0" type="line"/>
      <point x="766.36" y="1052.0" type="line"/>
      <point x="551.28" y="1052.0" type="line"/>
    </contour>
    <contour>
      <point x="1250.6" y="0.0" type="line"/>
      <point x="1338.92" y="0.0" type="line"/>
      <point x="1338.92" y="1052.0" type="line"/>
      <point x="1250.6" y="1052.0" type="line"/>
    </contour>
  </outline>
</glyph>
<glyph name="f_f_l" format="2">
  <advance width="1526"/>
  <unicode hex="FB04"/>
  <outline>
    <contour>
      <point x="202.88" y="0.0" type="line"/>
      <point x="291.2" y="0.0" type="line"/>
      <point x="291.2" y="1005.36" type="line"/>
      <point x="291.2" y="1019.2" type="line"/>
      <point x="291.2" y="1193.6" type="line" smooth="yes"/>
      <point x="291.2" y="1334.2"/>
      <point x="409.92" y="1474.8"/>
      <point x="529.04" y="1474.8" type="qcurve" smooth="yes"/>
      <point x="581.96" y="1474.8"/>
      <point x="680.36" y="1451.28"/>
      <point x="723.0" y="1434.16" type="qcurve"/>
      <point x="744.12" y="1510.96" type="line"/>
      <point x="693.7" y="1531.28"/>
      <point x="584.74" y="1556.0"/>
      <point x="529.04" y="1556.0" type="qcurve" smooth="yes"/>
      <point x="375.64" y="1556.0"/>
      <point x="202.88" y="1370.8"/>
      <point x="202.88" y="1193.6" type="qcurve" smooth="yes"/>
    </contour>
    <contour>
      <point x="25.0" y="972.56" type="line"/>
      <point x="569.0799999999999" y="972.56" type="line"/>
      <point x="569.0799999999999" y="1052.0" type="line"/>
      <point x="261.36" y="1052.0" type="line"/>
      <point x="240.07999999999998" y="1052.0" type="line"/>
      <point x="25.0" y="1052.0" type="line"/>
    </contour>
    <contour>
      <point x="726.08" y="0.0" type="line"/>
      <point x="814.4" y="0.0" type="line"/>
      <point x="814.4" y="1005.36" type="line"/>
      <point x="814.4" y="1019.2" type="line"/>
      <point x="814.4" y="1193.6" type="line" smooth="yes"/>
      <point x="814.4" y="1334.2"/>
      <point x="930.4" y="1474.8"/>
      <point x="1048.56" y="1474.8" type="qcurve" smooth="yes"/>
      <point x="1122.04" y="1474.8"/>
      <point x="1257.44" y="1439.6"/>
      <point x="1309.24" y="1417.44" type="qcurve"/>
      <point x="1332.36" y="1496.0" type="line"/>
      <point x="1269.72" y="1521.28"/>
      <point x="1122.92" y="1556.0"/>
      <point x="1048.56" y="1556.0" type="qcurve" smooth="yes"/>
      <point x="896.92" y="1556.0"/>
      <point x="726.08" y="1370.8"/>
      <point x="726.08" y="1193.6" type="qcurve" smooth="yes"/>
    </contour>
    <contour>
      <point x="547.4399999999999" y="972.56" type="line"/>
      <point x="1089.76" y="972.56" type="line"/>
      <point x="1089.76" y="1052.0" type="line"/>
      <point x="787.64" y="1052.0" type="line"/>
      <point x="766.36" y="1052.0" type="line"/>
      <point x="547.4399999999999" y="1052.0" type="line"/>
    </contour>
    <contour>
      <point x="1280.56" y="0.0" type="line"/>
      <point x="1368.8799999999999" y="0.0" type="line"/>
      <point x="1368.8799999999999" y="1496.0" type="line"/>
      <point x="1280.56" y="1496.0" type="line"/>
    </contour>
  </outline>
</glyph>
<glyph name="bitcoin" format="2">
  <advance width="1086"/>
  <outline>
    <contour>
      <point x="170.0" y="0.0" type="line"/>
      <point x="586.24" y="0.0" type="line" smooth="yes"/>
      <point x="769.86" y="0.0"/>
      <point x="985.54" y="210.48"/>
      <point x="985.54" y="400.96" type="qcurve" smooth="yes"/>
      <point x="985.54" y="549.12"/>
      <point x="854.0" y="733.36"/>
      <point x="747.8199999999999" y="762.64" type="qcurve"/>
      <point x="747.8199999999999" y="766.64" type="line"/>
      <point x="833.2" y="795.92"/>
      <point x="946.1" y="959.52"/>
      <point x="946.1" y="1086.32" type="qcurve" smooth="yes"/>
      <point x="946.1" y="1276.8"/>
      <point x="739.52" y="1456.0"/>
      <point x="555.12" y="1456.0" type="qcurve" smooth="yes"/>
      <point x="170.0" y="1456.0" type="line"/>
    </contour>
    <contour>
      <point x="258.84000000000003" y="84.55999999999999" type="line"/>
      <point x="258.84000000000003" y="716.04" type="line"/>
      <point x="586.24" y="716.04" type="line" smooth="yes"/>
      <point x="746.3199999999999" y="716.04"/>
      <point x="895.6" y="545.44"/>
      <point x="895.6" y="400.96" type="qcurve" smooth="yes"/>
      <point x="895.6" y="256.48"/>
      <point x="746.3199999999999" y="84.55999999999999"/>
      <point x="586.24" y="84.55999999999999" type="qcurve" smooth="yes"/>
    </contour>
    <contour>
      <point x="258.84000000000003" y="799.96" type="line"/>
      <point x="258.84000000000003" y="1371.44" type="line"/>
      <point x="555.12" y="1371.44" type="line" smooth="yes"/>
      <point x="715.2" y="1371.44"/>
      <point x="856.0" y="1223.52"/>
      <point x="856.0" y="1086.32" type="qcurve" smooth="yes"/>
      <point x="856.0" y="951.84"/>
      <point x="715.2" y="799.96"/>
      <point x="555.12" y="799.96" type="qcurve" smooth="yes"/>
    </contour>
    <contour>
      <point x="34.88" y="402.72" type="line"/>
      <point x="216.1" y="402.72" type="line"/>
      <point x="220.26" y="404.0" type="line"/>
      <point x="557.56" y="404.0" type="line"/>
      <point x="557.56" y="485.36" type="line"/>
      <point x="220.26" y="485.36" type="line"/>
      <point x="216.1" y="486.64" type="line"/>
      <point x="34.88" y="486.64" type="line"/>
    </contour>
  </outline>
</glyph>
<glyph name="four.pnum" format="2">
  <advance width="1185"/>
  <outline>
    <contour>
      <point x="790.98" y="0.0" type="line"/>
      <point x="878.48" y="0.0" type="line"/>
      <point x="878.48" y="1456.0" type="line"/>
      <point x="793.8" y="1456.0" type="line"/>
      <point x="111.6" y="446.24" type="line"/>
      <point x="111.6" y="361.04" type="line"/>
      <point x="1087.68" y="361.04" type="line"/>
      <point x="1087.68" y="445.6" type="line"/>
      <point x="848.0799999999999" y="445.6" type="line"/>
      <point x="813.92" y="445.6" type="line"/>
      <point x="213.82" y="445.6" type="line"/>
      <point x="783.42" y="1286.88" type="line"/>
      <point x="790.98" y="1286.88" type="line"/>
      <point x="790.98" y="416.0" type="line"/>
      <point x="790.98" y="392.56" type="line"/>
    </contour>
  </outline>
</glyph>
<glyph name="one.pnum" format="2">
  <advance width="1158"/>
  <outline>
    <contour>
      <point x="598.0" y="0.0" type="line"/>
      <point x="687.88" y="0.0" type="line"/>
      <point x="687.88" y="1476.0" type="line"/>
      <point x="656.6" y="1476.0" type="line"/>
      <point x="207.6" y="1309.32" type="line"/>
      <point x="207.6" y="1212.4" type="line"/>
      <point x="598.0" y="1363.16" type="line"/>
    </contour>
  </outline>
</glyph>
<glyph name="seven.pnum" format="2">
  <advance width="1173"/>
  <outline>
    <contour>
      <point x="312.08" y="0.0" type="line"/>
      <point x="408.91999999999996" y="0.0" type="line"/>
      <point x="1020.86" y="1386.0" type="line"/>
      <point x="1020.86" y="1456.0" type="line"/>
      <point x="146.2" y="1456.0" type="line"/>
      <point x="146.2" y="1369.36" type="line"/>
      <point x="926.4" y="1369.36" type="line"/>
    </contour>
  </outline>
</glyph>
<glyph name="three.pnum" format="2">
  <advance width="1189"/>
  <outline>
    <contour>
      <point x="174.68" y="380.0" type="line" smooth="yes"/>
      <point x="174.68" y="200.0"/>
      <point x="398.64" y="-30.0"/>
      <point x="574.04" y="-30.0" type="qcurve" smooth="yes"/>
      <point x="749.6" y="-30.0"/>
      <point x="974.54" y="200.0"/>
      <point x="974.54" y="400.32" type="qcurve" smooth="yes"/>
      <point x="974.54" y="540.0"/>
      <point x="824.6" y="728.64"/>
      <point x="704.0" y="759.28" type="qcurve"/>
      <point x="704.0" y="763.28" type="line"/>
      <point x="820.2" y="814.64"/>
      <point x="921.1999999999999" y="993.2"/>
      <point x="921.1999999999999" y="1100.0" type="qcurve" smooth="yes"/>
      <point x="921.1999999999999" y="1270.0"/>
      <point x="729.54" y="1486.0"/>
      <point x="574.04" y="1486.0" type="qcurve" smooth="yes"/>
      <point x="418.7" y="1486.0"/>
      <point x="216.27999999999997" y="1266.8"/>
      <point x="216.27999999999997" y="1100.0" type="qcurve" smooth="yes"/>
      <point x="216.27999999999997" y="1090.0" type="line"/>
      <point x="304.6" y="1090.0" type="line"/>
      <point x="304.6" y="1100.0" type="line" smooth="yes"/>
      <point x="304.6" y="1244.0"/>
      <point x="458.0" y="1401.44"/>
      <point x="574.04" y="1401.44" type="qcurve" smooth="yes"/>
      <point x="690.56" y="1401.44"/>
      <point x="831.3199999999999" y="1244.0"/>
      <point x="831.3199999999999" y="1096.8" type="qcurve" smooth="yes"/>
      <point x="831.3199999999999" y="963.2"/>
      <point x="672.88" y="802.0"/>
      <point x="524.12" y="802.0" type="qcurve" smooth="yes"/>
      <point x="414.96" y="802.0" type="line"/>
      <point x="414.96" y="716.0" type="line"/>
      <point x="534.6" y="716.0" type="line" smooth="yes"/>
      <point x="686.64" y="716.0"/>
      <point x="883.4" y="553.6"/>
      <point x="883.4" y="400.0" type="qcurve" smooth="yes"/>
      <point x="883.4" y="226.0"/>
      <point x="714.84" y="54.55999999999999"/>
      <point x="574.04" y="54.55999999999999" type="qcurve" smooth="yes"/>
      <point x="433.4" y="54.55999999999999"/>
      <point x="263.0" y="226.0"/>
      <point x="263.0" y="380.0" type="qcurve" smooth="yes"/>
      <point x="263.0" y="390.0" type="line"/>
      <point x="174.68" y="390.0" type="line"/>
    </contour>
  </outline>
</glyph>
